<?xml version="1.0" encoding="utf-8" ?>
<svg baseProfile="full" height="42mm" version="1.1" viewBox="0,0,200,42" width="200mm" xmlns="http://www.w3.org/2000/svg" xmlns:ev="http://www.w3.org/2001/xml-events" xmlns:xlink="http://www.w3.org/1999/xlink"><defs /><rect fill="#ffffff" height="42" width="200" x="0" y="0" /><text alignment-baseline="hanging" fill="#333333" style="font-size:10.0px; font-family:Arial;" x="10" y="1">2022</text><text alignment-baseline="hanging" fill="#333333" style="font-size:4.125px; font-family:Arial;" x="175" y="6">5171 XP</text><text fill="#333333" style="font-size:2.5px; font-family:Arial" x="10.0" y="15">Jan</text><text fill="#333333" style="font-size:2.5px; font-family:Arial" x="25.5" y="15">Feb</text><text fill="#333333" style="font-size:2.5px; font-family:Arial" x="41.0" y="15">Mar</text><text fill="#333333" style="font-size:2.5px; font-family:Arial" x="56.5" y="15">Apr</text><text fill="#333333" style="font-size:2.5px; font-family:Arial" x="72.0" y="15">May</text><text fill="#333333" style="font-size:2.5px; font-family:Arial" x="87.5" y="15">Jun</text><text fill="#333333" style="font-size:2.5px; font-family:Arial" x="103.0" y="15">Jul</text><text fill="#333333" style="font-size:2.5px; font-family:Arial" x="118.5" y="15">Aug</text><text fill="#333333" style="font-size:2.5px; font-family:Arial" x="134.0" y="15">Sep</text><text fill="#333333" style="font-size:2.5px; font-family:Arial" x="149.5" y="15">Oct</text><text fill="#333333" style="font-size:2.5px; font-family:Arial" x="165.0" y="15">Nov</text><text fill="#333333" style="font-size:2.5px; font-family:Arial" x="180.5" y="15">Dec</text><rect fill="#EBEDF0" height="2.6" rx="0.5" ry="0.5" width="2.6" x="10.0" y="16.5"><title>2021-12-27</title></rect><rect fill="#EBEDF0" height="2.6" rx="0.5" ry="0.5" width="2.6" x="10.0" y="20.0"><title>2021-12-28</title></rect><rect fill="#EBEDF0" height="2.6" rx="0.5" ry="0.5" width="2.6" x="10.0" y="23.5"><title>2021-12-29</title></rect><rect fill="#EBEDF0" height="2.6" rx="0.5" ry="0.5" width="2.6" x="10.0" y="27.0"><title>2021-12-30</title></rect><rect fill="#EBEDF0" height="2.6" rx="0.5" ry="0.5" width="2.6" x="10.0" y="30.5"><title>2021-12-31</title></rect><rect fill="#EBEDF0" height="2.6" rx="0.5" ry="0.5" width="2.6" x="10.0" y="34.0"><title>2022-01-01</title></rect><rect fill="#EBEDF0" height="2.6" rx="0.5" ry="0.5" width="2.6" x="10.0" y="37.5"><title>2022-01-02</title></rect><rect fill="#EBEDF0" height="2.6" rx="0.5" ry="0.5" width="2.6" x="13.5" y="16.5"><title>2022-01-03</title></rect><rect fill="#EBEDF0" height="2.6" rx="0.5" ry="0.5" width="2.6" x="13.5" y="20.0"><title>2022-01-04</title></rect><rect fill="#EBEDF0" height="2.6" rx="0.5" ry="0.5" width="2.6" x="13.5" y="23.5"><title>2022-01-05</title></rect><rect fill="#EBEDF0" height="2.6" rx="0.5" ry="0.5" width="2.6" x="13.5" y="27.0"><title>2022-01-06</title></rect><rect fill="#EBEDF0" height="2.6" rx="0.5" ry="0.5" width="2.6" x="13.5" y="30.5"><title>2022-01-07</title></rect><rect fill="#EBEDF0" height="2.6" rx="0.5" ry="0.5" width="2.6" x="13.5" y="34.0"><title>2022-01-08</title></rect><rect fill="#EBEDF0" height="2.6" rx="0.5" ry="0.5" width="2.6" x="13.5" y="37.5"><title>2022-01-09</title></rect><rect fill="#EBEDF0" height="2.6" rx="0.5" ry="0.5" width="2.6" x="17.0" y="16.5"><title>2022-01-10</title></rect><rect fill="#EBEDF0" height="2.6" rx="0.5" ry="0.5" width="2.6" x="17.0" y="20.0"><title>2022-01-11</title></rect><rect fill="#EBEDF0" height="2.6" rx="0.5" ry="0.5" width="2.6" x="17.0" y="23.5"><title>2022-01-12</title></rect><rect fill="#EBEDF0" height="2.6" rx="0.5" ry="0.5" width="2.6" x="17.0" y="27.0"><title>2022-01-13</title></rect><rect fill="#EBEDF0" height="2.6" rx="0.5" ry="0.5" width="2.6" x="17.0" y="30.5"><title>2022-01-14</title></rect><rect fill="#EBEDF0" height="2.6" rx="0.5" ry="0.5" width="2.6" x="17.0" y="34.0"><title>2022-01-15</title></rect><rect fill="#EBEDF0" height="2.6" rx="0.5" ry="0.5" width="2.6" x="17.0" y="37.5"><title>2022-01-16</title></rect><rect fill="#EBEDF0" height="2.6" rx="0.5" ry="0.5" width="2.6" x="20.5" y="16.5"><title>2022-01-17</title></rect><rect fill="#EBEDF0" height="2.6" rx="0.5" ry="0.5" width="2.6" x="20.5" y="20.0"><title>2022-01-18</title></rect><rect fill="#EBEDF0" height="2.6" rx="0.5" ry="0.5" width="2.6" x="20.5" y="23.5"><title>2022-01-19</title></rect><rect fill="#EBEDF0" height="2.6" rx="0.5" ry="0.5" width="2.6" x="20.5" y="27.0"><title>2022-01-20</title></rect><rect fill="#EBEDF0" height="2.6" rx="0.5" ry="0.5" width="2.6" x="20.5" y="30.5"><title>2022-01-21</title></rect><rect fill="#EBEDF0" height="2.6" rx="0.5" ry="0.5" width="2.6" x="20.5" y="34.0"><title>2022-01-22</title></rect><rect fill="#EBEDF0" height="2.6" rx="0.5" ry="0.5" width="2.6" x="20.5" y="37.5"><title>2022-01-23</title></rect><rect fill="#EBEDF0" height="2.6" rx="0.5" ry="0.5" width="2.6" x="24.0" y="16.5"><title>2022-01-24</title></rect><rect fill="#EBEDF0" height="2.6" rx="0.5" ry="0.5" width="2.6" x="24.0" y="20.0"><title>2022-01-25</title></rect><rect fill="#EBEDF0" height="2.6" rx="0.5" ry="0.5" width="2.6" x="24.0" y="23.5"><title>2022-01-26</title></rect><rect fill="#EBEDF0" height="2.6" rx="0.5" ry="0.5" width="2.6" x="24.0" y="27.0"><title>2022-01-27</title></rect><rect fill="#EBEDF0" height="2.6" rx="0.5" ry="0.5" width="2.6" x="24.0" y="30.5"><title>2022-01-28</title></rect><rect fill="#EBEDF0" height="2.6" rx="0.5" ry="0.5" width="2.6" x="24.0" y="34.0"><title>2022-01-29</title></rect><rect fill="#EBEDF0" height="2.6" rx="0.5" ry="0.5" width="2.6" x="24.0" y="37.5"><title>2022-01-30</title></rect><rect fill="#EBEDF0" height="2.6" rx="0.5" ry="0.5" width="2.6" x="27.5" y="16.5"><title>2022-01-31</title></rect><rect fill="#EBEDF0" height="2.6" rx="0.5" ry="0.5" width="2.6" x="27.5" y="20.0"><title>2022-02-01</title></rect><rect fill="#EBEDF0" height="2.6" rx="0.5" ry="0.5" width="2.6" x="27.5" y="23.5"><title>2022-02-02</title></rect><rect fill="#EBEDF0" height="2.6" rx="0.5" ry="0.5" width="2.6" x="27.5" y="27.0"><title>2022-02-03</title></rect><rect fill="#EBEDF0" height="2.6" rx="0.5" ry="0.5" width="2.6" x="27.5" y="30.5"><title>2022-02-04</title></rect><rect fill="#EBEDF0" height="2.6" rx="0.5" ry="0.5" width="2.6" x="27.5" y="34.0"><title>2022-02-05</title></rect><rect fill="#EBEDF0" height="2.6" rx="0.5" ry="0.5" width="2.6" x="27.5" y="37.5"><title>2022-02-06</title></rect><rect fill="#EBEDF0" height="2.6" rx="0.5" ry="0.5" width="2.6" x="31.0" y="16.5"><title>2022-02-07</title></rect><rect fill="#EBEDF0" height="2.6" rx="0.5" ry="0.5" width="2.6" x="31.0" y="20.0"><title>2022-02-08</title></rect><rect fill="#EBEDF0" height="2.6" rx="0.5" ry="0.5" width="2.6" x="31.0" y="23.5"><title>2022-02-09</title></rect><rect fill="#EBEDF0" height="2.6" rx="0.5" ry="0.5" width="2.6" x="31.0" y="27.0"><title>2022-02-10</title></rect><rect fill="#EBEDF0" height="2.6" rx="0.5" ry="0.5" width="2.6" x="31.0" y="30.5"><title>2022-02-11</title></rect><rect fill="#EBEDF0" height="2.6" rx="0.5" ry="0.5" width="2.6" x="31.0" y="34.0"><title>2022-02-12</title></rect><rect fill="#EBEDF0" height="2.6" rx="0.5" ry="0.5" width="2.6" x="31.0" y="37.5"><title>2022-02-13</title></rect><rect fill="#EBEDF0" height="2.6" rx="0.5" ry="0.5" width="2.6" x="34.5" y="16.5"><title>2022-02-14</title></rect><rect fill="#EBEDF0" height="2.6" rx="0.5" ry="0.5" width="2.6" x="34.5" y="20.0"><title>2022-02-15</title></rect><rect fill="#EBEDF0" height="2.6" rx="0.5" ry="0.5" width="2.6" x="34.5" y="23.5"><title>2022-02-16</title></rect><rect fill="#EBEDF0" height="2.6" rx="0.5" ry="0.5" width="2.6" x="34.5" y="27.0"><title>2022-02-17</title></rect><rect fill="#EBEDF0" height="2.6" rx="0.5" ry="0.5" width="2.6" x="34.5" y="30.5"><title>2022-02-18</title></rect><rect fill="#EBEDF0" height="2.6" rx="0.5" ry="0.5" width="2.6" x="34.5" y="34.0"><title>2022-02-19</title></rect><rect fill="#EBEDF0" height="2.6" rx="0.5" ry="0.5" width="2.6" x="34.5" y="37.5"><title>2022-02-20</title></rect><rect fill="#EBEDF0" height="2.6" rx="0.5" ry="0.5" width="2.6" x="38.0" y="16.5"><title>2022-02-21</title></rect><rect fill="#EBEDF0" height="2.6" rx="0.5" ry="0.5" width="2.6" x="38.0" y="20.0"><title>2022-02-22</title></rect><rect fill="#EBEDF0" height="2.6" rx="0.5" ry="0.5" width="2.6" x="38.0" y="23.5"><title>2022-02-23</title></rect><rect fill="#EBEDF0" height="2.6" rx="0.5" ry="0.5" width="2.6" x="38.0" y="27.0"><title>2022-02-24</title></rect><rect fill="#EBEDF0" height="2.6" rx="0.5" ry="0.5" width="2.6" x="38.0" y="30.5"><title>2022-02-25</title></rect><rect fill="#EBEDF0" height="2.6" rx="0.5" ry="0.5" width="2.6" x="38.0" y="34.0"><title>2022-02-26</title></rect><rect fill="#EBEDF0" height="2.6" rx="0.5" ry="0.5" width="2.6" x="38.0" y="37.5"><title>2022-02-27</title></rect><rect fill="#EBEDF0" height="2.6" rx="0.5" ry="0.5" width="2.6" x="41.5" y="16.5"><title>2022-02-28</title></rect><rect fill="#EBEDF0" height="2.6" rx="0.5" ry="0.5" width="2.6" x="41.5" y="20.0"><title>2022-03-01</title></rect><rect fill="#EBEDF0" height="2.6" rx="0.5" ry="0.5" width="2.6" x="41.5" y="23.5"><title>2022-03-02</title></rect><rect fill="#EBEDF0" height="2.6" rx="0.5" ry="0.5" width="2.6" x="41.5" y="27.0"><title>2022-03-03</title></rect><rect fill="#EBEDF0" height="2.6" rx="0.5" ry="0.5" width="2.6" x="41.5" y="30.5"><title>2022-03-04</title></rect><rect fill="#EBEDF0" height="2.6" rx="0.5" ry="0.5" width="2.6" x="41.5" y="34.0"><title>2022-03-05</title></rect><rect fill="#EBEDF0" height="2.6" rx="0.5" ry="0.5" width="2.6" x="41.5" y="37.5"><title>2022-03-06</title></rect><rect fill="#EBEDF0" height="2.6" rx="0.5" ry="0.5" width="2.6" x="45.0" y="16.5"><title>2022-03-07</title></rect><rect fill="#EBEDF0" height="2.6" rx="0.5" ry="0.5" width="2.6" x="45.0" y="20.0"><title>2022-03-08</title></rect><rect fill="#EBEDF0" height="2.6" rx="0.5" ry="0.5" width="2.6" x="45.0" y="23.5"><title>2022-03-09</title></rect><rect fill="#EBEDF0" height="2.6" rx="0.5" ry="0.5" width="2.6" x="45.0" y="27.0"><title>2022-03-10</title></rect><rect fill="#EBEDF0" height="2.6" rx="0.5" ry="0.5" width="2.6" x="45.0" y="30.5"><title>2022-03-11</title></rect><rect fill="#EBEDF0" height="2.6" rx="0.5" ry="0.5" width="2.6" x="45.0" y="34.0"><title>2022-03-12</title></rect><rect fill="#EBEDF0" height="2.6" rx="0.5" ry="0.5" width="2.6" x="45.0" y="37.5"><title>2022-03-13</title></rect><rect fill="#EBEDF0" height="2.6" rx="0.5" ry="0.5" width="2.6" x="48.5" y="16.5"><title>2022-03-14</title></rect><rect fill="#EBEDF0" height="2.6" rx="0.5" ry="0.5" width="2.6" x="48.5" y="20.0"><title>2022-03-15</title></rect><rect fill="#EBEDF0" height="2.6" rx="0.5" ry="0.5" width="2.6" x="48.5" y="23.5"><title>2022-03-16</title></rect><rect fill="#EBEDF0" height="2.6" rx="0.5" ry="0.5" width="2.6" x="48.5" y="27.0"><title>2022-03-17</title></rect><rect fill="#EBEDF0" height="2.6" rx="0.5" ry="0.5" width="2.6" x="48.5" y="30.5"><title>2022-03-18</title></rect><rect fill="#EBEDF0" height="2.6" rx="0.5" ry="0.5" width="2.6" x="48.5" y="34.0"><title>2022-03-19</title></rect><rect fill="#EBEDF0" height="2.6" rx="0.5" ry="0.5" width="2.6" x="48.5" y="37.5"><title>2022-03-20</title></rect><rect fill="#EBEDF0" height="2.6" rx="0.5" ry="0.5" width="2.6" x="52.0" y="16.5"><title>2022-03-21</title></rect><rect fill="#EBEDF0" height="2.6" rx="0.5" ry="0.5" width="2.6" x="52.0" y="20.0"><title>2022-03-22</title></rect><rect fill="#EBEDF0" height="2.6" rx="0.5" ry="0.5" width="2.6" x="52.0" y="23.5"><title>2022-03-23</title></rect><rect fill="#EBEDF0" height="2.6" rx="0.5" ry="0.5" width="2.6" x="52.0" y="27.0"><title>2022-03-24</title></rect><rect fill="#EBEDF0" height="2.6" rx="0.5" ry="0.5" width="2.6" x="52.0" y="30.5"><title>2022-03-25</title></rect><rect fill="#EBEDF0" height="2.6" rx="0.5" ry="0.5" width="2.6" x="52.0" y="34.0"><title>2022-03-26</title></rect><rect fill="#EBEDF0" height="2.6" rx="0.5" ry="0.5" width="2.6" x="52.0" y="37.5"><title>2022-03-27</title></rect><rect fill="#EBEDF0" height="2.6" rx="0.5" ry="0.5" width="2.6" x="55.5" y="16.5"><title>2022-03-28</title></rect><rect fill="#EBEDF0" height="2.6" rx="0.5" ry="0.5" width="2.6" x="55.5" y="20.0"><title>2022-03-29</title></rect><rect fill="#EBEDF0" height="2.6" rx="0.5" ry="0.5" width="2.6" x="55.5" y="23.5"><title>2022-03-30</title></rect><rect fill="#EBEDF0" height="2.6" rx="0.5" ry="0.5" width="2.6" x="55.5" y="27.0"><title>2022-03-31</title></rect><rect fill="#EBEDF0" height="2.6" rx="0.5" ry="0.5" width="2.6" x="55.5" y="30.5"><title>2022-04-01</title></rect><rect fill="#EBEDF0" height="2.6" rx="0.5" ry="0.5" width="2.6" x="55.5" y="34.0"><title>2022-04-02</title></rect><rect fill="#EBEDF0" height="2.6" rx="0.5" ry="0.5" width="2.6" x="55.5" y="37.5"><title>2022-04-03</title></rect><rect fill="#EBEDF0" height="2.6" rx="0.5" ry="0.5" width="2.6" x="59.0" y="16.5"><title>2022-04-04</title></rect><rect fill="#EBEDF0" height="2.6" rx="0.5" ry="0.5" width="2.6" x="59.0" y="20.0"><title>2022-04-05</title></rect><rect fill="#EBEDF0" height="2.6" rx="0.5" ry="0.5" width="2.6" x="59.0" y="23.5"><title>2022-04-06</title></rect><rect fill="#EBEDF0" height="2.6" rx="0.5" ry="0.5" width="2.6" x="59.0" y="27.0"><title>2022-04-07</title></rect><rect fill="#EBEDF0" height="2.6" rx="0.5" ry="0.5" width="2.6" x="59.0" y="30.5"><title>2022-04-08</title></rect><rect fill="#EBEDF0" height="2.6" rx="0.5" ry="0.5" width="2.6" x="59.0" y="34.0"><title>2022-04-09</title></rect><rect fill="#EBEDF0" height="2.6" rx="0.5" ry="0.5" width="2.6" x="59.0" y="37.5"><title>2022-04-10</title></rect><rect fill="#EBEDF0" height="2.6" rx="0.5" ry="0.5" width="2.6" x="62.5" y="16.5"><title>2022-04-11</title></rect><rect fill="#EBEDF0" height="2.6" rx="0.5" ry="0.5" width="2.6" x="62.5" y="20.0"><title>2022-04-12</title></rect><rect fill="#EBEDF0" height="2.6" rx="0.5" ry="0.5" width="2.6" x="62.5" y="23.5"><title>2022-04-13</title></rect><rect fill="#EBEDF0" height="2.6" rx="0.5" ry="0.5" width="2.6" x="62.5" y="27.0"><title>2022-04-14</title></rect><rect fill="#EBEDF0" height="2.6" rx="0.5" ry="0.5" width="2.6" x="62.5" y="30.5"><title>2022-04-15</title></rect><rect fill="#EBEDF0" height="2.6" rx="0.5" ry="0.5" width="2.6" x="62.5" y="34.0"><title>2022-04-16</title></rect><rect fill="#EBEDF0" height="2.6" rx="0.5" ry="0.5" width="2.6" x="62.5" y="37.5"><title>2022-04-17</title></rect><rect fill="#EBEDF0" height="2.6" rx="0.5" ry="0.5" width="2.6" x="66.0" y="16.5"><title>2022-04-18</title></rect><rect fill="#EBEDF0" height="2.6" rx="0.5" ry="0.5" width="2.6" x="66.0" y="20.0"><title>2022-04-19</title></rect><rect fill="#EBEDF0" height="2.6" rx="0.5" ry="0.5" width="2.6" x="66.0" y="23.5"><title>2022-04-20</title></rect><rect fill="#EBEDF0" height="2.6" rx="0.5" ry="0.5" width="2.6" x="66.0" y="27.0"><title>2022-04-21</title></rect><rect fill="#EBEDF0" height="2.6" rx="0.5" ry="0.5" width="2.6" x="66.0" y="30.5"><title>2022-04-22</title></rect><rect fill="#EBEDF0" height="2.6" rx="0.5" ry="0.5" width="2.6" x="66.0" y="34.0"><title>2022-04-23</title></rect><rect fill="#EBEDF0" height="2.6" rx="0.5" ry="0.5" width="2.6" x="66.0" y="37.5"><title>2022-04-24</title></rect><rect fill="#EBEDF0" height="2.6" rx="0.5" ry="0.5" width="2.6" x="69.5" y="16.5"><title>2022-04-25</title></rect><rect fill="#EBEDF0" height="2.6" rx="0.5" ry="0.5" width="2.6" x="69.5" y="20.0"><title>2022-04-26</title></rect><rect fill="#EBEDF0" height="2.6" rx="0.5" ry="0.5" width="2.6" x="69.5" y="23.5"><title>2022-04-27</title></rect><rect fill="#EBEDF0" height="2.6" rx="0.5" ry="0.5" width="2.6" x="69.5" y="27.0"><title>2022-04-28</title></rect><rect fill="#EBEDF0" height="2.6" rx="0.5" ry="0.5" width="2.6" x="69.5" y="30.5"><title>2022-04-29</title></rect><rect fill="#EBEDF0" height="2.6" rx="0.5" ry="0.5" width="2.6" x="69.5" y="34.0"><title>2022-04-30</title></rect><rect fill="#EBEDF0" height="2.6" rx="0.5" ry="0.5" width="2.6" x="69.5" y="37.5"><title>2022-05-01</title></rect><rect fill="#EBEDF0" height="2.6" rx="0.5" ry="0.5" width="2.6" x="73.0" y="16.5"><title>2022-05-02</title></rect><rect fill="#EBEDF0" height="2.6" rx="0.5" ry="0.5" width="2.6" x="73.0" y="20.0"><title>2022-05-03</title></rect><rect fill="#EBEDF0" height="2.6" rx="0.5" ry="0.5" width="2.6" x="73.0" y="23.5"><title>2022-05-04</title></rect><rect fill="#EBEDF0" height="2.6" rx="0.5" ry="0.5" width="2.6" x="73.0" y="27.0"><title>2022-05-05</title></rect><rect fill="#EBEDF0" height="2.6" rx="0.5" ry="0.5" width="2.6" x="73.0" y="30.5"><title>2022-05-06</title></rect><rect fill="#EBEDF0" height="2.6" rx="0.5" ry="0.5" width="2.6" x="73.0" y="34.0"><title>2022-05-07</title></rect><rect fill="#EBEDF0" height="2.6" rx="0.5" ry="0.5" width="2.6" x="73.0" y="37.5"><title>2022-05-08</title></rect><rect fill="#EBEDF0" height="2.6" rx="0.5" ry="0.5" width="2.6" x="76.5" y="16.5"><title>2022-05-09</title></rect><rect fill="#EBEDF0" height="2.6" rx="0.5" ry="0.5" width="2.6" x="76.5" y="20.0"><title>2022-05-10</title></rect><rect fill="#EBEDF0" height="2.6" rx="0.5" ry="0.5" width="2.6" x="76.5" y="23.5"><title>2022-05-11</title></rect><rect fill="#EBEDF0" height="2.6" rx="0.5" ry="0.5" width="2.6" x="76.5" y="27.0"><title>2022-05-12</title></rect><rect fill="#EBEDF0" height="2.6" rx="0.5" ry="0.5" width="2.6" x="76.5" y="30.5"><title>2022-05-13</title></rect><rect fill="#EBEDF0" height="2.6" rx="0.5" ry="0.5" width="2.6" x="76.5" y="34.0"><title>2022-05-14</title></rect><rect fill="#EBEDF0" height="2.6" rx="0.5" ry="0.5" width="2.6" x="76.5" y="37.5"><title>2022-05-15</title></rect><rect fill="#EBEDF0" height="2.6" rx="0.5" ry="0.5" width="2.6" x="80.0" y="16.5"><title>2022-05-16</title></rect><rect fill="#EBEDF0" height="2.6" rx="0.5" ry="0.5" width="2.6" x="80.0" y="20.0"><title>2022-05-17</title></rect><rect fill="#EBEDF0" height="2.6" rx="0.5" ry="0.5" width="2.6" x="80.0" y="23.5"><title>2022-05-18</title></rect><rect fill="#EBEDF0" height="2.6" rx="0.5" ry="0.5" width="2.6" x="80.0" y="27.0"><title>2022-05-19</title></rect><rect fill="#EBEDF0" height="2.6" rx="0.5" ry="0.5" width="2.6" x="80.0" y="30.5"><title>2022-05-20</title></rect><rect fill="#EBEDF0" height="2.6" rx="0.5" ry="0.5" width="2.6" x="80.0" y="34.0"><title>2022-05-21</title></rect><rect fill="#EBEDF0" height="2.6" rx="0.5" ry="0.5" width="2.6" x="80.0" y="37.5"><title>2022-05-22</title></rect><rect fill="#EBEDF0" height="2.6" rx="0.5" ry="0.5" width="2.6" x="83.5" y="16.5"><title>2022-05-23</title></rect><rect fill="#EBEDF0" height="2.6" rx="0.5" ry="0.5" width="2.6" x="83.5" y="20.0"><title>2022-05-24</title></rect><rect fill="#EBEDF0" height="2.6" rx="0.5" ry="0.5" width="2.6" x="83.5" y="23.5"><title>2022-05-25</title></rect><rect fill="#EBEDF0" height="2.6" rx="0.5" ry="0.5" width="2.6" x="83.5" y="27.0"><title>2022-05-26</title></rect><rect fill="#EBEDF0" height="2.6" rx="0.5" ry="0.5" width="2.6" x="83.5" y="30.5"><title>2022-05-27</title></rect><rect fill="#EBEDF0" height="2.6" rx="0.5" ry="0.5" width="2.6" x="83.5" y="34.0"><title>2022-05-28</title></rect><rect fill="#EBEDF0" height="2.6" rx="0.5" ry="0.5" width="2.6" x="83.5" y="37.5"><title>2022-05-29</title></rect><rect fill="#EBEDF0" height="2.6" rx="0.5" ry="0.5" width="2.6" x="87.0" y="16.5"><title>2022-05-30</title></rect><rect fill="#EBEDF0" height="2.6" rx="0.5" ry="0.5" width="2.6" x="87.0" y="20.0"><title>2022-05-31</title></rect><rect fill="#EBEDF0" height="2.6" rx="0.5" ry="0.5" width="2.6" x="87.0" y="23.5"><title>2022-06-01</title></rect><rect fill="#EBEDF0" height="2.6" rx="0.5" ry="0.5" width="2.6" x="87.0" y="27.0"><title>2022-06-02</title></rect><rect fill="#EBEDF0" height="2.6" rx="0.5" ry="0.5" width="2.6" x="87.0" y="30.5"><title>2022-06-03</title></rect><rect fill="#EBEDF0" height="2.6" rx="0.5" ry="0.5" width="2.6" x="87.0" y="34.0"><title>2022-06-04</title></rect><rect fill="#EBEDF0" height="2.6" rx="0.5" ry="0.5" width="2.6" x="87.0" y="37.5"><title>2022-06-05</title></rect><rect fill="#EBEDF0" height="2.6" rx="0.5" ry="0.5" width="2.6" x="90.5" y="16.5"><title>2022-06-06</title></rect><rect fill="#EBEDF0" height="2.6" rx="0.5" ry="0.5" width="2.6" x="90.5" y="20.0"><title>2022-06-07</title></rect><rect fill="#EBEDF0" height="2.6" rx="0.5" ry="0.5" width="2.6" x="90.5" y="23.5"><title>2022-06-08</title></rect><rect fill="#EBEDF0" height="2.6" rx="0.5" ry="0.5" width="2.6" x="90.5" y="27.0"><title>2022-06-09</title></rect><rect fill="#EBEDF0" height="2.6" rx="0.5" ry="0.5" width="2.6" x="90.5" y="30.5"><title>2022-06-10</title></rect><rect fill="#EBEDF0" height="2.6" rx="0.5" ry="0.5" width="2.6" x="90.5" y="34.0"><title>2022-06-11</title></rect><rect fill="#EBEDF0" height="2.6" rx="0.5" ry="0.5" width="2.6" x="90.5" y="37.5"><title>2022-06-12</title></rect><rect fill="#EBEDF0" height="2.6" rx="0.5" ry="0.5" width="2.6" x="94.0" y="16.5"><title>2022-06-13</title></rect><rect fill="#EBEDF0" height="2.6" rx="0.5" ry="0.5" width="2.6" x="94.0" y="20.0"><title>2022-06-14</title></rect><rect fill="#EBEDF0" height="2.6" rx="0.5" ry="0.5" width="2.6" x="94.0" y="23.5"><title>2022-06-15</title></rect><rect fill="#EBEDF0" height="2.6" rx="0.5" ry="0.5" width="2.6" x="94.0" y="27.0"><title>2022-06-16</title></rect><rect fill="#EBEDF0" height="2.6" rx="0.5" ry="0.5" width="2.6" x="94.0" y="30.5"><title>2022-06-17</title></rect><rect fill="#EBEDF0" height="2.6" rx="0.5" ry="0.5" width="2.6" x="94.0" y="34.0"><title>2022-06-18</title></rect><rect fill="#EBEDF0" height="2.6" rx="0.5" ry="0.5" width="2.6" x="94.0" y="37.5"><title>2022-06-19</title></rect><rect fill="#EBEDF0" height="2.6" rx="0.5" ry="0.5" width="2.6" x="97.5" y="16.5"><title>2022-06-20</title></rect><rect fill="#EBEDF0" height="2.6" rx="0.5" ry="0.5" width="2.6" x="97.5" y="20.0"><title>2022-06-21</title></rect><rect fill="#EBEDF0" height="2.6" rx="0.5" ry="0.5" width="2.6" x="97.5" y="23.5"><title>2022-06-22</title></rect><rect fill="#EBEDF0" height="2.6" rx="0.5" ry="0.5" width="2.6" x="97.5" y="27.0"><title>2022-06-23</title></rect><rect fill="#EBEDF0" height="2.6" rx="0.5" ry="0.5" width="2.6" x="97.5" y="30.5"><title>2022-06-24</title></rect><rect fill="#EBEDF0" height="2.6" rx="0.5" ry="0.5" width="2.6" x="97.5" y="34.0"><title>2022-06-25</title></rect><rect fill="#EBEDF0" height="2.6" rx="0.5" ry="0.5" width="2.6" x="97.5" y="37.5"><title>2022-06-26</title></rect><rect fill="#EBEDF0" height="2.6" rx="0.5" ry="0.5" width="2.6" x="101.0" y="16.5"><title>2022-06-27</title></rect><rect fill="#EBEDF0" height="2.6" rx="0.5" ry="0.5" width="2.6" x="101.0" y="20.0"><title>2022-06-28</title></rect><rect fill="#EBEDF0" height="2.6" rx="0.5" ry="0.5" width="2.6" x="101.0" y="23.5"><title>2022-06-29</title></rect><rect fill="#EBEDF0" height="2.6" rx="0.5" ry="0.5" width="2.6" x="101.0" y="27.0"><title>2022-06-30</title></rect><rect fill="#EBEDF0" height="2.6" rx="0.5" ry="0.5" width="2.6" x="101.0" y="30.5"><title>2022-07-01</title></rect><rect fill="#EBEDF0" height="2.6" rx="0.5" ry="0.5" width="2.6" x="101.0" y="34.0"><title>2022-07-02</title></rect><rect fill="#EBEDF0" height="2.6" rx="0.5" ry="0.5" width="2.6" x="101.0" y="37.5"><title>2022-07-03</title></rect><rect fill="#EBEDF0" height="2.6" rx="0.5" ry="0.5" width="2.6" x="104.5" y="16.5"><title>2022-07-04</title></rect><rect fill="#EBEDF0" height="2.6" rx="0.5" ry="0.5" width="2.6" x="104.5" y="20.0"><title>2022-07-05</title></rect><rect fill="#EBEDF0" height="2.6" rx="0.5" ry="0.5" width="2.6" x="104.5" y="23.5"><title>2022-07-06</title></rect><rect fill="#EBEDF0" height="2.6" rx="0.5" ry="0.5" width="2.6" x="104.5" y="27.0"><title>2022-07-07</title></rect><rect fill="#EBEDF0" height="2.6" rx="0.5" ry="0.5" width="2.6" x="104.5" y="30.5"><title>2022-07-08</title></rect><rect fill="#EBEDF0" height="2.6" rx="0.5" ry="0.5" width="2.6" x="104.5" y="34.0"><title>2022-07-09</title></rect><rect fill="#EBEDF0" height="2.6" rx="0.5" ry="0.5" width="2.6" x="104.5" y="37.5"><title>2022-07-10</title></rect><rect fill="#EBEDF0" height="2.6" rx="0.5" ry="0.5" width="2.6" x="108.0" y="16.5"><title>2022-07-11</title></rect><rect fill="#EBEDF0" height="2.6" rx="0.5" ry="0.5" width="2.6" x="108.0" y="20.0"><title>2022-07-12</title></rect><rect fill="#EBEDF0" height="2.6" rx="0.5" ry="0.5" width="2.6" x="108.0" y="23.5"><title>2022-07-13</title></rect><rect fill="#EBEDF0" height="2.6" rx="0.5" ry="0.5" width="2.6" x="108.0" y="27.0"><title>2022-07-14</title></rect><rect fill="#EBEDF0" height="2.6" rx="0.5" ry="0.5" width="2.6" x="108.0" y="30.5"><title>2022-07-15</title></rect><rect fill="#EBEDF0" height="2.6" rx="0.5" ry="0.5" width="2.6" x="108.0" y="34.0"><title>2022-07-16</title></rect><rect fill="#EBEDF0" height="2.6" rx="0.5" ry="0.5" width="2.6" x="108.0" y="37.5"><title>2022-07-17</title></rect><rect fill="#EBEDF0" height="2.6" rx="0.5" ry="0.5" width="2.6" x="111.5" y="16.5"><title>2022-07-18</title></rect><rect fill="#EBEDF0" height="2.6" rx="0.5" ry="0.5" width="2.6" x="111.5" y="20.0"><title>2022-07-19</title></rect><rect fill="#EBEDF0" height="2.6" rx="0.5" ry="0.5" width="2.6" x="111.5" y="23.5"><title>2022-07-20</title></rect><rect fill="#EBEDF0" height="2.6" rx="0.5" ry="0.5" width="2.6" x="111.5" y="27.0"><title>2022-07-21</title></rect><rect fill="#EBEDF0" height="2.6" rx="0.5" ry="0.5" width="2.6" x="111.5" y="30.5"><title>2022-07-22</title></rect><rect fill="#EBEDF0" height="2.6" rx="0.5" ry="0.5" width="2.6" x="111.5" y="34.0"><title>2022-07-23</title></rect><rect fill="#EBEDF0" height="2.6" rx="0.5" ry="0.5" width="2.6" x="111.5" y="37.5"><title>2022-07-24</title></rect><rect fill="#EBEDF0" height="2.6" rx="0.5" ry="0.5" width="2.6" x="115.0" y="16.5"><title>2022-07-25</title></rect><rect fill="#EBEDF0" height="2.6" rx="0.5" ry="0.5" width="2.6" x="115.0" y="20.0"><title>2022-07-26</title></rect><rect fill="#EBEDF0" height="2.6" rx="0.5" ry="0.5" width="2.6" x="115.0" y="23.5"><title>2022-07-27</title></rect><rect fill="#EBEDF0" height="2.6" rx="0.5" ry="0.5" width="2.6" x="115.0" y="27.0"><title>2022-07-28</title></rect><rect fill="#EBEDF0" height="2.6" rx="0.5" ry="0.5" width="2.6" x="115.0" y="30.5"><title>2022-07-29</title></rect><rect fill="#EBEDF0" height="2.6" rx="0.5" ry="0.5" width="2.6" x="115.0" y="34.0"><title>2022-07-30</title></rect><rect fill="#EBEDF0" height="2.6" rx="0.5" ry="0.5" width="2.6" x="115.0" y="37.5"><title>2022-07-31</title></rect><rect fill="#EBEDF0" height="2.6" rx="0.5" ry="0.5" width="2.6" x="118.5" y="16.5"><title>2022-08-01</title></rect><rect fill="#EBEDF0" height="2.6" rx="0.5" ry="0.5" width="2.6" x="118.5" y="20.0"><title>2022-08-02</title></rect><rect fill="#EBEDF0" height="2.6" rx="0.5" ry="0.5" width="2.6" x="118.5" y="23.5"><title>2022-08-03</title></rect><rect fill="#EBEDF0" height="2.6" rx="0.5" ry="0.5" width="2.6" x="118.5" y="27.0"><title>2022-08-04</title></rect><rect fill="#EBEDF0" height="2.6" rx="0.5" ry="0.5" width="2.6" x="118.5" y="30.5"><title>2022-08-05</title></rect><rect fill="#EBEDF0" height="2.6" rx="0.5" ry="0.5" width="2.6" x="118.5" y="34.0"><title>2022-08-06</title></rect><rect fill="#EBEDF0" height="2.6" rx="0.5" ry="0.5" width="2.6" x="118.5" y="37.5"><title>2022-08-07</title></rect><rect fill="#EBEDF0" height="2.6" rx="0.5" ry="0.5" width="2.6" x="122.0" y="16.5"><title>2022-08-08</title></rect><rect fill="#EBEDF0" height="2.6" rx="0.5" ry="0.5" width="2.6" x="122.0" y="20.0"><title>2022-08-09</title></rect><rect fill="#EBEDF0" height="2.6" rx="0.5" ry="0.5" width="2.6" x="122.0" y="23.5"><title>2022-08-10</title></rect><rect fill="#EBEDF0" height="2.6" rx="0.5" ry="0.5" width="2.6" x="122.0" y="27.0"><title>2022-08-11</title></rect><rect fill="#EBEDF0" height="2.6" rx="0.5" ry="0.5" width="2.6" x="122.0" y="30.5"><title>2022-08-12</title></rect><rect fill="#EBEDF0" height="2.6" rx="0.5" ry="0.5" width="2.6" x="122.0" y="34.0"><title>2022-08-13</title></rect><rect fill="#EBEDF0" height="2.6" rx="0.5" ry="0.5" width="2.6" x="122.0" y="37.5"><title>2022-08-14</title></rect><rect fill="#66be6b" height="2.6" rx="0.5" ry="0.5" width="2.6" x="125.5" y="16.5"><title>2022-08-15 75 XP</title></rect><rect fill="#549F57" height="2.6" rx="0.5" ry="0.5" width="2.6" x="125.5" y="20.0"><title>2022-08-16 100 XP</title></rect><rect fill="#a8e5aa" height="2.6" rx="0.5" ry="0.5" width="2.6" x="125.5" y="23.5"><title>2022-08-17 30 XP</title></rect><rect fill="#66be6b" height="2.6" rx="0.5" ry="0.5" width="2.6" x="125.5" y="27.0"><title>2022-08-18 77 XP</title></rect><rect fill="#66be6b" height="2.6" rx="0.5" ry="0.5" width="2.6" x="125.5" y="30.5"><title>2022-08-19 64 XP</title></rect><rect fill="#ace7ae" height="2.6" rx="0.5" ry="0.5" width="2.6" x="125.5" y="34.0"><title>2022-08-20 14 XP</title></rect><rect fill="#abe7ad" height="2.6" rx="0.5" ry="0.5" width="2.6" x="125.5" y="37.5"><title>2022-08-21 15 XP</title></rect><rect fill="#67bf6c" height="2.6" rx="0.5" ry="0.5" width="2.6" x="129.0" y="16.5"><title>2022-08-22 50 XP</title></rect><rect fill="#a9e5ab" height="2.6" rx="0.5" ry="0.5" width="2.6" x="129.0" y="20.0"><title>2022-08-23 29 XP</title></rect><rect fill="#a9e6ab" height="2.6" rx="0.5" ry="0.5" width="2.6" x="129.0" y="23.5"><title>2022-08-24 27 XP</title></rect><rect fill="#EBEDF0" height="2.6" rx="0.5" ry="0.5" width="2.6" x="129.0" y="27.0"><title>2022-08-25</title></rect><rect fill="#a9e6ab" height="2.6" rx="0.5" ry="0.5" width="2.6" x="129.0" y="30.5"><title>2022-08-26 25 XP</title></rect><rect fill="#abe7ad" height="2.6" rx="0.5" ry="0.5" width="2.6" x="129.0" y="34.0"><title>2022-08-27 15 XP</title></rect><rect fill="#EBEDF0" height="2.6" rx="0.5" ry="0.5" width="2.6" x="129.0" y="37.5"><title>2022-08-28</title></rect><rect fill="#ace7ae" height="2.6" rx="0.5" ry="0.5" width="2.6" x="132.5" y="16.5"><title>2022-08-29 13 XP</title></rect><rect fill="#a9e6ab" height="2.6" rx="0.5" ry="0.5" width="2.6" x="132.5" y="20.0"><title>2022-08-30 27 XP</title></rect><rect fill="#ace7ae" height="2.6" rx="0.5" ry="0.5" width="2.6" x="132.5" y="23.5"><title>2022-08-31 14 XP</title></rect><rect fill="#EBEDF0" height="2.6" rx="0.5" ry="0.5" width="2.6" x="132.5" y="27.0"><title>2022-09-01</title></rect><rect fill="#a6e4a8" height="2.6" rx="0.5" ry="0.5" width="2.6" x="132.5" y="30.5"><title>2022-09-02 41 XP</title></rect><rect fill="#EBEDF0" height="2.6" rx="0.5" ry="0.5" width="2.6" x="132.5" y="34.0"><title>2022-09-03</title></rect><rect fill="#a9e6ab" height="2.6" rx="0.5" ry="0.5" width="2.6" x="132.5" y="37.5"><title>2022-09-04 25 XP</title></rect><rect fill="#ace7ae" height="2.6" rx="0.5" ry="0.5" width="2.6" x="136.0" y="16.5"><title>2022-09-05 13 XP</title></rect><rect fill="#ace7ae" height="2.6" rx="0.5" ry="0.5" width="2.6" x="136.0" y="20.0"><title>2022-09-06 13 XP</title></rect><rect fill="#67bf6c" height="2.6" rx="0.5" ry="0.5" width="2.6" x="136.0" y="23.5"><title>2022-09-07 55 XP</title></rect><rect fill="#aae6ac" height="2.6" rx="0.5" ry="0.5" width="2.6" x="136.0" y="27.0"><title>2022-09-08 23 XP</title></rect><rect fill="#ace7ae" height="2.6" rx="0.5" ry="0.5" width="2.6" x="136.0" y="30.5"><title>2022-09-09 13 XP</title></rect><rect fill="#a8e5aa" height="2.6" rx="0.5" ry="0.5" width="2.6" x="136.0" y="34.0"><title>2022-09-10 30 XP</title></rect><rect fill="#ace7ae" height="2.6" rx="0.5" ry="0.5" width="2.6" x="136.0" y="37.5"><title>2022-09-11 14 XP</title></rect><rect fill="#aae6ac" height="2.6" rx="0.5" ry="0.5" width="2.6" x="139.5" y="16.5"><title>2022-09-12 24 XP</title></rect><rect fill="#abe7ad" height="2.6" rx="0.5" ry="0.5" width="2.6" x="139.5" y="20.0"><title>2022-09-13 15 XP</title></rect><rect fill="#abe7ad" height="2.6" rx="0.5" ry="0.5" width="2.6" x="139.5" y="23.5"><title>2022-09-14 15 XP</title></rect><rect fill="#aae6ac" height="2.6" rx="0.5" ry="0.5" width="2.6" x="139.5" y="27.0"><title>2022-09-15 22 XP</title></rect><rect fill="#ace7ae" height="2.6" rx="0.5" ry="0.5" width="2.6" x="139.5" y="30.5"><title>2022-09-16 14 XP</title></rect><rect fill="#a7e5a9" height="2.6" rx="0.5" ry="0.5" width="2.6" x="139.5" y="34.0"><title>2022-09-17 38 XP</title></rect><rect fill="#abe7ad" height="2.6" rx="0.5" ry="0.5" width="2.6" x="139.5" y="37.5"><title>2022-09-18 15 XP</title></rect><rect fill="#a8e5aa" height="2.6" rx="0.5" ry="0.5" width="2.6" x="143.0" y="16.5"><title>2022-09-19 32 XP</title></rect><rect fill="#EBEDF0" height="2.6" rx="0.5" ry="0.5" width="2.6" x="143.0" y="20.0"><title>2022-09-20</title></rect><rect fill="#EBEDF0" height="2.6" rx="0.5" ry="0.5" width="2.6" x="143.0" y="23.5"><title>2022-09-21</title></rect><rect fill="#abe7ad" height="2.6" rx="0.5" ry="0.5" width="2.6" x="143.0" y="27.0"><title>2022-09-22 15 XP</title></rect><rect fill="#EBEDF0" height="2.6" rx="0.5" ry="0.5" width="2.6" x="143.0" y="30.5"><title>2022-09-23</title></rect><rect fill="#aae6ac" height="2.6" rx="0.5" ry="0.5" width="2.6" x="143.0" y="34.0"><title>2022-09-24 24 XP</title></rect><rect fill="#aae6ac" height="2.6" rx="0.5" ry="0.5" width="2.6" x="143.0" y="37.5"><title>2022-09-25 24 XP</title></rect><rect fill="#a9e6ab" height="2.6" rx="0.5" ry="0.5" width="2.6" x="146.5" y="16.5"><title>2022-09-26 25 XP</title></rect><rect fill="#a9e6ab" height="2.6" rx="0.5" ry="0.5" width="2.6" x="146.5" y="20.0"><title>2022-09-27 25 XP</title></rect><rect fill="#EBEDF0" height="2.6" rx="0.5" ry="0.5" width="2.6" x="146.5" y="23.5"><title>2022-09-28</title></rect><rect fill="#EBEDF0" height="2.6" rx="0.5" ry="0.5" width="2.6" x="146.5" y="27.0"><title>2022-09-29</title></rect><rect fill="#ace7ae" height="2.6" rx="0.5" ry="0.5" width="2.6" x="146.5" y="30.5"><title>2022-09-30 12 XP</title></rect><rect fill="#abe7ad" height="2.6" rx="0.5" ry="0.5" width="2.6" x="146.5" y="34.0"><title>2022-10-01 15 XP</title></rect><rect fill="#ace7ae" height="2.6" rx="0.5" ry="0.5" width="2.6" x="146.5" y="37.5"><title>2022-10-02 13 XP</title></rect><rect fill="#ace7ae" height="2.6" rx="0.5" ry="0.5" width="2.6" x="150.0" y="16.5"><title>2022-10-03 14 XP</title></rect><rect fill="#EBEDF0" height="2.6" rx="0.5" ry="0.5" width="2.6" x="150.0" y="20.0"><title>2022-10-04</title></rect><rect fill="#abe7ad" height="2.6" rx="0.5" ry="0.5" width="2.6" x="150.0" y="23.5"><title>2022-10-05 15 XP</title></rect><rect fill="#abe7ad" height="2.6" rx="0.5" ry="0.5" width="2.6" x="150.0" y="27.0"><title>2022-10-06 15 XP</title></rect><rect fill="#aae6ac" height="2.6" rx="0.5" ry="0.5" width="2.6" x="150.0" y="30.5"><title>2022-10-07 23 XP</title></rect><rect fill="#EBEDF0" height="2.6" rx="0.5" ry="0.5" width="2.6" x="150.0" y="34.0"><title>2022-10-08</title></rect><rect fill="#EBEDF0" height="2.6" rx="0.5" ry="0.5" width="2.6" x="150.0" y="37.5"><title>2022-10-09</title></rect><rect fill="#ace7ae" height="2.6" rx="0.5" ry="0.5" width="2.6" x="153.5" y="16.5"><title>2022-10-10 14 XP</title></rect><rect fill="#ace7ae" height="2.6" rx="0.5" ry="0.5" width="2.6" x="153.5" y="20.0"><title>2022-10-11 14 XP</title></rect><rect fill="#ace7ae" height="2.6" rx="0.5" ry="0.5" width="2.6" x="153.5" y="23.5"><title>2022-10-12 13 XP</title></rect><rect fill="#a8e5aa" height="2.6" rx="0.5" ry="0.5" width="2.6" x="153.5" y="27.0"><title>2022-10-13 30 XP</title></rect><rect fill="#EBEDF0" height="2.6" rx="0.5" ry="0.5" width="2.6" x="153.5" y="30.5"><title>2022-10-14</title></rect><rect fill="#aae6ac" height="2.6" rx="0.5" ry="0.5" width="2.6" x="153.5" y="34.0"><title>2022-10-15 23 XP</title></rect><rect fill="#ace7ae" height="2.6" rx="0.5" ry="0.5" width="2.6" x="153.5" y="37.5"><title>2022-10-16 14 XP</title></rect><rect fill="#EBEDF0" height="2.6" rx="0.5" ry="0.5" width="2.6" x="157.0" y="16.5"><title>2022-10-17</title></rect><rect fill="#ace7ae" height="2.6" rx="0.5" ry="0.5" width="2.6" x="157.0" y="20.0"><title>2022-10-18 14 XP</title></rect><rect fill="#a9e6ab" height="2.6" rx="0.5" ry="0.5" width="2.6" x="157.0" y="23.5"><title>2022-10-19 25 XP</title></rect><rect fill="#abe7ad" height="2.6" rx="0.5" ry="0.5" width="2.6" x="157.0" y="27.0"><title>2022-10-20 15 XP</title></rect><rect fill="#ace7ae" height="2.6" rx="0.5" ry="0.5" width="2.6" x="157.0" y="30.5"><title>2022-10-21 14 XP</title></rect><rect fill="#EBEDF0" height="2.6" rx="0.5" ry="0.5" width="2.6" x="157.0" y="34.0"><title>2022-10-22</title></rect><rect fill="#abe7ad" height="2.6" rx="0.5" ry="0.5" width="2.6" x="157.0" y="37.5"><title>2022-10-23 15 XP</title></rect><rect fill="#EBEDF0" height="2.6" rx="0.5" ry="0.5" width="2.6" x="160.5" y="16.5"><title>2022-10-24</title></rect><rect fill="#aae6ac" height="2.6" rx="0.5" ry="0.5" width="2.6" x="160.5" y="20.0"><title>2022-10-25 23 XP</title></rect><rect fill="#ace7ae" height="2.6" rx="0.5" ry="0.5" width="2.6" x="160.5" y="23.5"><title>2022-10-26 13 XP</title></rect><rect fill="#ace7ae" height="2.6" rx="0.5" ry="0.5" width="2.6" x="160.5" y="27.0"><title>2022-10-27 14 XP</title></rect><rect fill="#a9e5ab" height="2.6" rx="0.5" ry="0.5" width="2.6" x="160.5" y="30.5"><title>2022-10-28 29 XP</title></rect><rect fill="#EBEDF0" height="2.6" rx="0.5" ry="0.5" width="2.6" x="160.5" y="34.0"><title>2022-10-29</title></rect><rect fill="#ace7ae" height="2.6" rx="0.5" ry="0.5" width="2.6" x="160.5" y="37.5"><title>2022-10-30 12 XP</title></rect><rect fill="#ace7ae" height="2.6" rx="0.5" ry="0.5" width="2.6" x="164.0" y="16.5"><title>2022-10-31 14 XP</title></rect><rect fill="#a9e6ab" height="2.6" rx="0.5" ry="0.5" width="2.6" x="164.0" y="20.0"><title>2022-11-01 25 XP</title></rect><rect fill="#EBEDF0" height="2.6" rx="0.5" ry="0.5" width="2.6" x="164.0" y="23.5"><title>2022-11-02</title></rect><rect fill="#abe7ad" height="2.6" rx="0.5" ry="0.5" width="2.6" x="164.0" y="27.0"><title>2022-11-03 15 XP</title></rect><rect fill="#a8e5aa" height="2.6" rx="0.5" ry="0.5" width="2.6" x="164.0" y="30.5"><title>2022-11-04 30 XP</title></rect><rect fill="#549F57" height="2.6" rx="0.5" ry="0.5" width="2.6" x="164.0" y="34.0"><title>2022-11-05 99 XP</title></rect><rect fill="#a9e6ab" height="2.6" rx="0.5" ry="0.5" width="2.6" x="164.0" y="37.5"><title>2022-11-06 28 XP</title></rect><rect fill="#EBEDF0" height="2.6" rx="0.5" ry="0.5" width="2.6" x="167.5" y="16.5"><title>2022-11-07</title></rect><rect fill="#66be6b" height="2.6" rx="0.5" ry="0.5" width="2.6" x="167.5" y="20.0"><title>2022-11-08 77 XP</title></rect><rect fill="#a6e4a8" height="2.6" rx="0.5" ry="0.5" width="2.6" x="167.5" y="23.5"><title>2022-11-09 43 XP</title></rect><rect fill="#EBEDF0" height="2.6" rx="0.5" ry="0.5" width="2.6" x="167.5" y="27.0"><title>2022-11-10</title></rect><rect fill="#EBEDF0" height="2.6" rx="0.5" ry="0.5" width="2.6" x="167.5" y="30.5"><title>2022-11-11</title></rect><rect fill="#ace7ae" height="2.6" rx="0.5" ry="0.5" width="2.6" x="167.5" y="34.0"><title>2022-11-12 13 XP</title></rect><rect fill="#ace7ae" height="2.6" rx="0.5" ry="0.5" width="2.6" x="167.5" y="37.5"><title>2022-11-13 14 XP</title></rect><rect fill="#66be6b" height="2.6" rx="0.5" ry="0.5" width="2.6" x="171.0" y="16.5"><title>2022-11-14 72 XP</title></rect><rect fill="#a8e5aa" height="2.6" rx="0.5" ry="0.5" width="2.6" x="171.0" y="20.0"><title>2022-11-15 34 XP</title></rect><rect fill="#66be6b" height="2.6" rx="0.5" ry="0.5" width="2.6" x="171.0" y="23.5"><title>2022-11-16 65 XP</title></rect><rect fill="#ace7ae" height="2.6" rx="0.5" ry="0.5" width="2.6" x="171.0" y="27.0"><title>2022-11-17 12 XP</title></rect><rect fill="#65bd6a" height="2.6" rx="0.5" ry="0.5" width="2.6" x="171.0" y="30.5"><title>2022-11-18 83 XP</title></rect><rect fill="#a5e4a8" height="2.6" rx="0.5" ry="0.5" width="2.6" x="171.0" y="34.0"><title>2022-11-19 45 XP</title></rect><rect fill="#a7e5a9" height="2.6" rx="0.5" ry="0.5" width="2.6" x="171.0" y="37.5"><title>2022-11-20 39 XP</title></rect><rect fill="#65bd6a" height="2.6" rx="0.5" ry="0.5" width="2.6" x="174.5" y="16.5"><title>2022-11-21 83 XP</title></rect><rect fill="#a8e5aa" height="2.6" rx="0.5" ry="0.5" width="2.6" x="174.5" y="20.0"><title>2022-11-22 30 XP</title></rect><rect fill="#a9e5ab" height="2.6" rx="0.5" ry="0.5" width="2.6" x="174.5" y="23.5"><title>2022-11-23 29 XP</title></rect><rect fill="#ace7ae" height="2.6" rx="0.5" ry="0.5" width="2.6" x="174.5" y="27.0"><title>2022-11-24 13 XP</title></rect><rect fill="#abe7ad" height="2.6" rx="0.5" ry="0.5" width="2.6" x="174.5" y="30.5"><title>2022-11-25 15 XP</title></rect><rect fill="#ace7ae" height="2.6" rx="0.5" ry="0.5" width="2.6" x="174.5" y="34.0"><title>2022-11-26 13 XP</title></rect><rect fill="#abe7ad" height="2.6" rx="0.5" ry="0.5" width="2.6" x="174.5" y="37.5"><title>2022-11-27 15 XP</title></rect><rect fill="#ace7ae" height="2.6" rx="0.5" ry="0.5" width="2.6" x="178.0" y="16.5"><title>2022-11-28 13 XP</title></rect><rect fill="#a5e4a8" height="2.6" rx="0.5" ry="0.5" width="2.6" x="178.0" y="20.0"><title>2022-11-29 45 XP</title></rect><rect fill="#65bd6a" height="2.6" rx="0.5" ry="0.5" width="2.6" x="178.0" y="23.5"><title>2022-11-30 89 XP</title></rect><rect fill="#65bd6a" height="2.6" rx="0.5" ry="0.5" width="2.6" x="178.0" y="27.0"><title>2022-12-01 91 XP</title></rect><rect fill="#67be6b" height="2.6" rx="0.5" ry="0.5" width="2.6" x="178.0" y="30.5"><title>2022-12-02 62 XP</title></rect><rect fill="#a5e4a7" height="2.6" rx="0.5" ry="0.5" width="2.6" x="178.0" y="34.0"><title>2022-12-03 49 XP</title></rect><rect fill="#66be6b" height="2.6" rx="0.5" ry="0.5" width="2.6" x="178.0" y="37.5"><title>2022-12-04 66 XP</title></rect><rect fill="#ace7ae" height="2.6" rx="0.5" ry="0.5" width="2.6" x="181.5" y="16.5"><title>2022-12-05 13 XP</title></rect><rect fill="#66be6b" height="2.6" rx="0.5" ry="0.5" width="2.6" x="181.5" y="20.0"><title>2022-12-06 65 XP</title></rect><rect fill="#a9e5ab" height="2.6" rx="0.5" ry="0.5" width="2.6" x="181.5" y="23.5"><title>2022-12-07 29 XP</title></rect><rect fill="#a9e5ab" height="2.6" rx="0.5" ry="0.5" width="2.6" x="181.5" y="27.0"><title>2022-12-08 29 XP</title></rect><rect fill="#a7e5a9" height="2.6" rx="0.5" ry="0.5" width="2.6" x="181.5" y="30.5"><title>2022-12-09 37 XP</title></rect><rect fill="#65bd6a" height="2.6" rx="0.5" ry="0.5" width="2.6" x="181.5" y="34.0"><title>2022-12-10 96 XP</title></rect><rect fill="#a6e4a8" height="2.6" rx="0.5" ry="0.5" width="2.6" x="181.5" y="37.5"><title>2022-12-11 44 XP</title></rect><rect fill="#65bd6a" height="2.6" rx="0.5" ry="0.5" width="2.6" x="185.0" y="16.5"><title>2022-12-12 96 XP</title></rect><rect fill="#549F57" height="2.6" rx="0.5" ry="0.5" width="2.6" x="185.0" y="20.0"><title>2022-12-13 97 XP</title></rect><rect fill="#549F57" height="2.6" rx="0.5" ry="0.5" width="2.6" x="185.0" y="23.5"><title>2022-12-14 560 XP</title></rect><rect fill="#66be6b" height="2.6" rx="0.5" ry="0.5" width="2.6" x="185.0" y="27.0"><title>2022-12-15 65 XP</title></rect><rect fill="#549F57" height="2.6" rx="0.5" ry="0.5" width="2.6" x="185.0" y="30.5"><title>2022-12-16 270 XP</title></rect><rect fill="#67bf6c" height="2.6" rx="0.5" ry="0.5" width="2.6" x="185.0" y="34.0"><title>2022-12-17 51 XP</title></rect><rect fill="#a8e5aa" height="2.6" rx="0.5" ry="0.5" width="2.6" x="185.0" y="37.5"><title>2022-12-18 33 XP</title></rect><rect fill="#549F57" height="2.6" rx="0.5" ry="0.5" width="2.6" x="188.5" y="16.5"><title>2022-12-19 145 XP</title></rect><rect fill="#EBEDF0" height="2.6" rx="0.5" ry="0.5" width="2.6" x="188.5" y="20.0"><title>2022-12-20</title></rect><rect fill="#549F57" height="2.6" rx="0.5" ry="0.5" width="2.6" x="188.5" y="23.5"><title>2022-12-21 114 XP</title></rect><rect fill="#a6e4a8" height="2.6" rx="0.5" ry="0.5" width="2.6" x="188.5" y="27.0"><title>2022-12-22 40 XP</title></rect><rect fill="#549F57" height="2.6" rx="0.5" ry="0.5" width="2.6" x="188.5" y="30.5"><title>2022-12-23 302 XP</title></rect><rect fill="#abe7ad" height="2.6" rx="0.5" ry="0.5" width="2.6" x="188.5" y="34.0"><title>2022-12-24 15 XP</title></rect><rect fill="#aae6ac" height="2.6" rx="0.5" ry="0.5" width="2.6" x="188.5" y="37.5"><title>2022-12-25 20 XP</title></rect><rect fill="#EBEDF0" height="2.6" rx="0.5" ry="0.5" width="2.6" x="192.0" y="16.5"><title>2022-12-26</title></rect><rect fill="#EBEDF0" height="2.6" rx="0.5" ry="0.5" width="2.6" x="192.0" y="20.0"><title>2022-12-27</title></rect><rect fill="#67bf6c" height="2.6" rx="0.5" ry="0.5" width="2.6" x="192.0" y="23.5"><title>2022-12-28 50 XP</title></rect><rect fill="#549F57" height="2.6" rx="0.5" ry="0.5" width="2.6" x="192.0" y="27.0"><title>2022-12-29 160 XP</title></rect><rect fill="#abe7ad" height="2.6" rx="0.5" ry="0.5" width="2.6" x="192.0" y="30.5"><title>2022-12-30 15 XP</title></rect><rect fill="#a9e6ab" height="2.6" rx="0.5" ry="0.5" width="2.6" x="192.0" y="34.0"><title>2022-12-31 25 XP</title></rect></svg>