<?xml version="1.0" encoding="utf-8" ?>
<svg baseProfile="full" height="42mm" version="1.1" viewBox="0,0,200,42" width="200mm" xmlns="http://www.w3.org/2000/svg" xmlns:ev="http://www.w3.org/2001/xml-events" xmlns:xlink="http://www.w3.org/1999/xlink"><defs /><rect fill="#ffffff" height="42" width="200" x="0" y="0" /><text alignment-baseline="hanging" fill="#333333" style="font-size:10.0px; font-family:Arial;" x="10" y="1">2022</text><text alignment-baseline="hanging" fill="#333333" style="font-size:4.125px; font-family:Arial;" x="175" y="6">132 hours</text><text fill="#333333" style="font-size:2.5px; font-family:Arial" x="10.0" y="15">Jan</text><text fill="#333333" style="font-size:2.5px; font-family:Arial" x="25.5" y="15">Feb</text><text fill="#333333" style="font-size:2.5px; font-family:Arial" x="41.0" y="15">Mar</text><text fill="#333333" style="font-size:2.5px; font-family:Arial" x="56.5" y="15">Apr</text><text fill="#333333" style="font-size:2.5px; font-family:Arial" x="72.0" y="15">May</text><text fill="#333333" style="font-size:2.5px; font-family:Arial" x="87.5" y="15">Jun</text><text fill="#333333" style="font-size:2.5px; font-family:Arial" x="103.0" y="15">Jul</text><text fill="#333333" style="font-size:2.5px; font-family:Arial" x="118.5" y="15">Aug</text><text fill="#333333" style="font-size:2.5px; font-family:Arial" x="134.0" y="15">Sep</text><text fill="#333333" style="font-size:2.5px; font-family:Arial" x="149.5" y="15">Oct</text><text fill="#333333" style="font-size:2.5px; font-family:Arial" x="165.0" y="15">Nov</text><text fill="#333333" style="font-size:2.5px; font-family:Arial" x="180.5" y="15">Dec</text><rect fill="#abe6ad" height="2.6" rx="0.5" ry="0.5" width="2.6" x="10.0" y="16.5"><title>2021-12-27 3.32 mins</title></rect><rect fill="#ace7ae" height="2.6" rx="0.5" ry="0.5" width="2.6" x="10.0" y="20.0"><title>2021-12-28 0.03 mins</title></rect><rect fill="#a9e6ab" height="2.6" rx="0.5" ry="0.5" width="2.6" x="10.0" y="23.5"><title>2021-12-29 6.98 mins</title></rect><rect fill="#abe6ad" height="2.6" rx="0.5" ry="0.5" width="2.6" x="10.0" y="27.0"><title>2021-12-30 3.53 mins</title></rect><rect fill="#abe6ad" height="2.6" rx="0.5" ry="0.5" width="2.6" x="10.0" y="30.5"><title>2021-12-31 2.78 mins</title></rect><rect fill="#549F57" height="2.6" rx="0.5" ry="0.5" width="2.6" x="10.0" y="34.0"><title>2022-01-01 59.03 mins</title></rect><rect fill="#549F57" height="2.6" rx="0.5" ry="0.5" width="2.6" x="10.0" y="37.5"><title>2022-01-02 89.32 mins</title></rect><rect fill="#549F57" height="2.6" rx="0.5" ry="0.5" width="2.6" x="13.5" y="16.5"><title>2022-01-03 70.77 mins</title></rect><rect fill="#EBEDF0" height="2.6" rx="0.5" ry="0.5" width="2.6" x="13.5" y="20.0"><title>2022-01-04</title></rect><rect fill="#abe7ad" height="2.6" rx="0.5" ry="0.5" width="2.6" x="13.5" y="23.5"><title>2022-01-05 1.97 mins</title></rect><rect fill="#65bd69" height="2.6" rx="0.5" ry="0.5" width="2.6" x="13.5" y="27.0"><title>2022-01-06 43.3 mins</title></rect><rect fill="#a4e3a6" height="2.6" rx="0.5" ry="0.5" width="2.6" x="13.5" y="30.5"><title>2022-01-07 20.32 mins</title></rect><rect fill="#a4e3a6" height="2.6" rx="0.5" ry="0.5" width="2.6" x="13.5" y="34.0"><title>2022-01-08 20.15 mins</title></rect><rect fill="#ace7ae" height="2.6" rx="0.5" ry="0.5" width="2.6" x="13.5" y="37.5"><title>2022-01-09 0.13 mins</title></rect><rect fill="#a3e3a5" height="2.6" rx="0.5" ry="0.5" width="2.6" x="17.0" y="16.5"><title>2022-01-10 23.32 mins</title></rect><rect fill="#ace7ae" height="2.6" rx="0.5" ry="0.5" width="2.6" x="17.0" y="20.0"><title>2022-01-11 0.62 mins</title></rect><rect fill="#a7e5a9" height="2.6" rx="0.5" ry="0.5" width="2.6" x="17.0" y="23.5"><title>2022-01-12 12.8 mins</title></rect><rect fill="#66be6b" height="2.6" rx="0.5" ry="0.5" width="2.6" x="17.0" y="27.0"><title>2022-01-13 32.22 mins</title></rect><rect fill="#ace7ae" height="2.6" rx="0.5" ry="0.5" width="2.6" x="17.0" y="30.5"><title>2022-01-14 0.05 mins</title></rect><rect fill="#66be6b" height="2.6" rx="0.5" ry="0.5" width="2.6" x="17.0" y="34.0"><title>2022-01-15 29.97 mins</title></rect><rect fill="#aae6ac" height="2.6" rx="0.5" ry="0.5" width="2.6" x="17.0" y="37.5"><title>2022-01-16 4.5 mins</title></rect><rect fill="#EBEDF0" height="2.6" rx="0.5" ry="0.5" width="2.6" x="20.5" y="16.5"><title>2022-01-17</title></rect><rect fill="#66be6b" height="2.6" rx="0.5" ry="0.5" width="2.6" x="20.5" y="20.0"><title>2022-01-18 25.97 mins</title></rect><rect fill="#65bc69" height="2.6" rx="0.5" ry="0.5" width="2.6" x="20.5" y="23.5"><title>2022-01-19 44.48 mins</title></rect><rect fill="#549F57" height="2.6" rx="0.5" ry="0.5" width="2.6" x="20.5" y="27.0"><title>2022-01-20 89.63 mins</title></rect><rect fill="#549F57" height="2.6" rx="0.5" ry="0.5" width="2.6" x="20.5" y="30.5"><title>2022-01-21 119.87 mins</title></rect><rect fill="#EBEDF0" height="2.6" rx="0.5" ry="0.5" width="2.6" x="20.5" y="34.0"><title>2022-01-22</title></rect><rect fill="#EBEDF0" height="2.6" rx="0.5" ry="0.5" width="2.6" x="20.5" y="37.5"><title>2022-01-23</title></rect><rect fill="#a9e6ab" height="2.6" rx="0.5" ry="0.5" width="2.6" x="24.0" y="16.5"><title>2022-01-24 6.97 mins</title></rect><rect fill="#66be6b" height="2.6" rx="0.5" ry="0.5" width="2.6" x="24.0" y="20.0"><title>2022-01-25 27.63 mins</title></rect><rect fill="#ace7ae" height="2.6" rx="0.5" ry="0.5" width="2.6" x="24.0" y="23.5"><title>2022-01-26 0.62 mins</title></rect><rect fill="#a6e4a8" height="2.6" rx="0.5" ry="0.5" width="2.6" x="24.0" y="27.0"><title>2022-01-27 13.88 mins</title></rect><rect fill="#65bd6a" height="2.6" rx="0.5" ry="0.5" width="2.6" x="24.0" y="30.5"><title>2022-01-28 36.08 mins</title></rect><rect fill="#ace7ae" height="2.6" rx="0.5" ry="0.5" width="2.6" x="24.0" y="34.0"><title>2022-01-29 0.05 mins</title></rect><rect fill="#EBEDF0" height="2.6" rx="0.5" ry="0.5" width="2.6" x="24.0" y="37.5"><title>2022-01-30</title></rect><rect fill="#EBEDF0" height="2.6" rx="0.5" ry="0.5" width="2.6" x="27.5" y="16.5"><title>2022-01-31</title></rect><rect fill="#EBEDF0" height="2.6" rx="0.5" ry="0.5" width="2.6" x="27.5" y="20.0"><title>2022-02-01</title></rect><rect fill="#EBEDF0" height="2.6" rx="0.5" ry="0.5" width="2.6" x="27.5" y="23.5"><title>2022-02-02</title></rect><rect fill="#EBEDF0" height="2.6" rx="0.5" ry="0.5" width="2.6" x="27.5" y="27.0"><title>2022-02-03</title></rect><rect fill="#EBEDF0" height="2.6" rx="0.5" ry="0.5" width="2.6" x="27.5" y="30.5"><title>2022-02-04</title></rect><rect fill="#EBEDF0" height="2.6" rx="0.5" ry="0.5" width="2.6" x="27.5" y="34.0"><title>2022-02-05</title></rect><rect fill="#abe7ad" height="2.6" rx="0.5" ry="0.5" width="2.6" x="27.5" y="37.5"><title>2022-02-06 1.68 mins</title></rect><rect fill="#EBEDF0" height="2.6" rx="0.5" ry="0.5" width="2.6" x="31.0" y="16.5"><title>2022-02-07</title></rect><rect fill="#ace7ae" height="2.6" rx="0.5" ry="0.5" width="2.6" x="31.0" y="20.0"><title>2022-02-08 0.38 mins</title></rect><rect fill="#EBEDF0" height="2.6" rx="0.5" ry="0.5" width="2.6" x="31.0" y="23.5"><title>2022-02-09</title></rect><rect fill="#EBEDF0" height="2.6" rx="0.5" ry="0.5" width="2.6" x="31.0" y="27.0"><title>2022-02-10</title></rect><rect fill="#EBEDF0" height="2.6" rx="0.5" ry="0.5" width="2.6" x="31.0" y="30.5"><title>2022-02-11</title></rect><rect fill="#EBEDF0" height="2.6" rx="0.5" ry="0.5" width="2.6" x="31.0" y="34.0"><title>2022-02-12</title></rect><rect fill="#EBEDF0" height="2.6" rx="0.5" ry="0.5" width="2.6" x="31.0" y="37.5"><title>2022-02-13</title></rect><rect fill="#549F57" height="2.6" rx="0.5" ry="0.5" width="2.6" x="34.5" y="16.5"><title>2022-02-14 77.95 mins</title></rect><rect fill="#abe7ad" height="2.6" rx="0.5" ry="0.5" width="2.6" x="34.5" y="20.0"><title>2022-02-15 1.53 mins</title></rect><rect fill="#EBEDF0" height="2.6" rx="0.5" ry="0.5" width="2.6" x="34.5" y="23.5"><title>2022-02-16</title></rect><rect fill="#65bd69" height="2.6" rx="0.5" ry="0.5" width="2.6" x="34.5" y="27.0"><title>2022-02-17 43.13 mins</title></rect><rect fill="#a7e5a9" height="2.6" rx="0.5" ry="0.5" width="2.6" x="34.5" y="30.5"><title>2022-02-18 13.27 mins</title></rect><rect fill="#549F57" height="2.6" rx="0.5" ry="0.5" width="2.6" x="34.5" y="34.0"><title>2022-02-19 57.55 mins</title></rect><rect fill="#abe6ad" height="2.6" rx="0.5" ry="0.5" width="2.6" x="34.5" y="37.5"><title>2022-02-20 2.78 mins</title></rect><rect fill="#EBEDF0" height="2.6" rx="0.5" ry="0.5" width="2.6" x="38.0" y="16.5"><title>2022-02-21</title></rect><rect fill="#EBEDF0" height="2.6" rx="0.5" ry="0.5" width="2.6" x="38.0" y="20.0"><title>2022-02-22</title></rect><rect fill="#ace7ae" height="2.6" rx="0.5" ry="0.5" width="2.6" x="38.0" y="23.5"><title>2022-02-23 0.85 mins</title></rect><rect fill="#a8e5aa" height="2.6" rx="0.5" ry="0.5" width="2.6" x="38.0" y="27.0"><title>2022-02-24 10.42 mins</title></rect><rect fill="#a6e4a8" height="2.6" rx="0.5" ry="0.5" width="2.6" x="38.0" y="30.5"><title>2022-02-25 14.37 mins</title></rect><rect fill="#a8e5aa" height="2.6" rx="0.5" ry="0.5" width="2.6" x="38.0" y="34.0"><title>2022-02-26 9.5 mins</title></rect><rect fill="#66be6b" height="2.6" rx="0.5" ry="0.5" width="2.6" x="38.0" y="37.5"><title>2022-02-27 27.02 mins</title></rect><rect fill="#65bc69" height="2.6" rx="0.5" ry="0.5" width="2.6" x="41.5" y="16.5"><title>2022-02-28 44.82 mins</title></rect><rect fill="#EBEDF0" height="2.6" rx="0.5" ry="0.5" width="2.6" x="41.5" y="20.0"><title>2022-03-01</title></rect><rect fill="#aae6ac" height="2.6" rx="0.5" ry="0.5" width="2.6" x="41.5" y="23.5"><title>2022-03-02 4.38 mins</title></rect><rect fill="#EBEDF0" height="2.6" rx="0.5" ry="0.5" width="2.6" x="41.5" y="27.0"><title>2022-03-03</title></rect><rect fill="#a8e5aa" height="2.6" rx="0.5" ry="0.5" width="2.6" x="41.5" y="30.5"><title>2022-03-04 8.82 mins</title></rect><rect fill="#EBEDF0" height="2.6" rx="0.5" ry="0.5" width="2.6" x="41.5" y="34.0"><title>2022-03-05</title></rect><rect fill="#EBEDF0" height="2.6" rx="0.5" ry="0.5" width="2.6" x="41.5" y="37.5"><title>2022-03-06</title></rect><rect fill="#EBEDF0" height="2.6" rx="0.5" ry="0.5" width="2.6" x="45.0" y="16.5"><title>2022-03-07</title></rect><rect fill="#66be6b" height="2.6" rx="0.5" ry="0.5" width="2.6" x="45.0" y="20.0"><title>2022-03-08 31.7 mins</title></rect><rect fill="#a8e5aa" height="2.6" rx="0.5" ry="0.5" width="2.6" x="45.0" y="23.5"><title>2022-03-09 10.82 mins</title></rect><rect fill="#ace7ae" height="2.6" rx="0.5" ry="0.5" width="2.6" x="45.0" y="27.0"><title>2022-03-10 0.27 mins</title></rect><rect fill="#a9e6ab" height="2.6" rx="0.5" ry="0.5" width="2.6" x="45.0" y="30.5"><title>2022-03-11 7.7 mins</title></rect><rect fill="#EBEDF0" height="2.6" rx="0.5" ry="0.5" width="2.6" x="45.0" y="34.0"><title>2022-03-12</title></rect><rect fill="#EBEDF0" height="2.6" rx="0.5" ry="0.5" width="2.6" x="45.0" y="37.5"><title>2022-03-13</title></rect><rect fill="#66be6b" height="2.6" rx="0.5" ry="0.5" width="2.6" x="48.5" y="16.5"><title>2022-03-14 28.78 mins</title></rect><rect fill="#abe6ad" height="2.6" rx="0.5" ry="0.5" width="2.6" x="48.5" y="20.0"><title>2022-03-15 3.32 mins</title></rect><rect fill="#ace7ae" height="2.6" rx="0.5" ry="0.5" width="2.6" x="48.5" y="23.5"><title>2022-03-16 0.58 mins</title></rect><rect fill="#EBEDF0" height="2.6" rx="0.5" ry="0.5" width="2.6" x="48.5" y="27.0"><title>2022-03-17</title></rect><rect fill="#66be6b" height="2.6" rx="0.5" ry="0.5" width="2.6" x="48.5" y="30.5"><title>2022-03-18 26.25 mins</title></rect><rect fill="#EBEDF0" height="2.6" rx="0.5" ry="0.5" width="2.6" x="48.5" y="34.0"><title>2022-03-19</title></rect><rect fill="#aae6ac" height="2.6" rx="0.5" ry="0.5" width="2.6" x="48.5" y="37.5"><title>2022-03-20 3.97 mins</title></rect><rect fill="#65bd6a" height="2.6" rx="0.5" ry="0.5" width="2.6" x="52.0" y="16.5"><title>2022-03-21 35.9 mins</title></rect><rect fill="#66be6b" height="2.6" rx="0.5" ry="0.5" width="2.6" x="52.0" y="20.0"><title>2022-03-22 28.38 mins</title></rect><rect fill="#ace7ae" height="2.6" rx="0.5" ry="0.5" width="2.6" x="52.0" y="23.5"><title>2022-03-23 0.15 mins</title></rect><rect fill="#549F57" height="2.6" rx="0.5" ry="0.5" width="2.6" x="52.0" y="27.0"><title>2022-03-24 92.05 mins</title></rect><rect fill="#abe7ad" height="2.6" rx="0.5" ry="0.5" width="2.6" x="52.0" y="30.5"><title>2022-03-25 1.75 mins</title></rect><rect fill="#aae6ac" height="2.6" rx="0.5" ry="0.5" width="2.6" x="52.0" y="34.0"><title>2022-03-26 3.78 mins</title></rect><rect fill="#EBEDF0" height="2.6" rx="0.5" ry="0.5" width="2.6" x="52.0" y="37.5"><title>2022-03-27</title></rect><rect fill="#a5e4a7" height="2.6" rx="0.5" ry="0.5" width="2.6" x="55.5" y="16.5"><title>2022-03-28 16.88 mins</title></rect><rect fill="#66bd6a" height="2.6" rx="0.5" ry="0.5" width="2.6" x="55.5" y="20.0"><title>2022-03-29 34.22 mins</title></rect><rect fill="#EBEDF0" height="2.6" rx="0.5" ry="0.5" width="2.6" x="55.5" y="23.5"><title>2022-03-30</title></rect><rect fill="#EBEDF0" height="2.6" rx="0.5" ry="0.5" width="2.6" x="55.5" y="27.0"><title>2022-03-31</title></rect><rect fill="#a8e5aa" height="2.6" rx="0.5" ry="0.5" width="2.6" x="55.5" y="30.5"><title>2022-04-01 10.78 mins</title></rect><rect fill="#abe7ad" height="2.6" rx="0.5" ry="0.5" width="2.6" x="55.5" y="34.0"><title>2022-04-02 1.82 mins</title></rect><rect fill="#abe6ad" height="2.6" rx="0.5" ry="0.5" width="2.6" x="55.5" y="37.5"><title>2022-04-03 3.62 mins</title></rect><rect fill="#66be6b" height="2.6" rx="0.5" ry="0.5" width="2.6" x="59.0" y="16.5"><title>2022-04-04 28.17 mins</title></rect><rect fill="#a8e5aa" height="2.6" rx="0.5" ry="0.5" width="2.6" x="59.0" y="20.0"><title>2022-04-05 11.03 mins</title></rect><rect fill="#549F57" height="2.6" rx="0.5" ry="0.5" width="2.6" x="59.0" y="23.5"><title>2022-04-06 63.93 mins</title></rect><rect fill="#64bc69" height="2.6" rx="0.5" ry="0.5" width="2.6" x="59.0" y="27.0"><title>2022-04-07 51.62 mins</title></rect><rect fill="#549F57" height="2.6" rx="0.5" ry="0.5" width="2.6" x="59.0" y="30.5"><title>2022-04-08 62.0 mins</title></rect><rect fill="#549F57" height="2.6" rx="0.5" ry="0.5" width="2.6" x="59.0" y="34.0"><title>2022-04-09 66.37 mins</title></rect><rect fill="#a6e4a9" height="2.6" rx="0.5" ry="0.5" width="2.6" x="59.0" y="37.5"><title>2022-04-10 13.72 mins</title></rect><rect fill="#a6e4a8" height="2.6" rx="0.5" ry="0.5" width="2.6" x="62.5" y="16.5"><title>2022-04-11 15.08 mins</title></rect><rect fill="#EBEDF0" height="2.6" rx="0.5" ry="0.5" width="2.6" x="62.5" y="20.0"><title>2022-04-12</title></rect><rect fill="#EBEDF0" height="2.6" rx="0.5" ry="0.5" width="2.6" x="62.5" y="23.5"><title>2022-04-13</title></rect><rect fill="#EBEDF0" height="2.6" rx="0.5" ry="0.5" width="2.6" x="62.5" y="27.0"><title>2022-04-14</title></rect><rect fill="#a8e5aa" height="2.6" rx="0.5" ry="0.5" width="2.6" x="62.5" y="30.5"><title>2022-04-15 10.88 mins</title></rect><rect fill="#549F57" height="2.6" rx="0.5" ry="0.5" width="2.6" x="62.5" y="34.0"><title>2022-04-16 65.1 mins</title></rect><rect fill="#EBEDF0" height="2.6" rx="0.5" ry="0.5" width="2.6" x="62.5" y="37.5"><title>2022-04-17</title></rect><rect fill="#66be6b" height="2.6" rx="0.5" ry="0.5" width="2.6" x="66.0" y="16.5"><title>2022-04-18 24.95 mins</title></rect><rect fill="#549F57" height="2.6" rx="0.5" ry="0.5" width="2.6" x="66.0" y="20.0"><title>2022-04-19 65.07 mins</title></rect><rect fill="#65bd6a" height="2.6" rx="0.5" ry="0.5" width="2.6" x="66.0" y="23.5"><title>2022-04-20 40.53 mins</title></rect><rect fill="#549F57" height="2.6" rx="0.5" ry="0.5" width="2.6" x="66.0" y="27.0"><title>2022-04-21 56.9 mins</title></rect><rect fill="#aae6ac" height="2.6" rx="0.5" ry="0.5" width="2.6" x="66.0" y="30.5"><title>2022-04-22 5.13 mins</title></rect><rect fill="#abe6ad" height="2.6" rx="0.5" ry="0.5" width="2.6" x="66.0" y="34.0"><title>2022-04-23 3.42 mins</title></rect><rect fill="#a7e5a9" height="2.6" rx="0.5" ry="0.5" width="2.6" x="66.0" y="37.5"><title>2022-04-24 12.12 mins</title></rect><rect fill="#ace7ae" height="2.6" rx="0.5" ry="0.5" width="2.6" x="69.5" y="16.5"><title>2022-04-25 0.02 mins</title></rect><rect fill="#a7e5a9" height="2.6" rx="0.5" ry="0.5" width="2.6" x="69.5" y="20.0"><title>2022-04-26 11.93 mins</title></rect><rect fill="#aae6ac" height="2.6" rx="0.5" ry="0.5" width="2.6" x="69.5" y="23.5"><title>2022-04-27 4.22 mins</title></rect><rect fill="#EBEDF0" height="2.6" rx="0.5" ry="0.5" width="2.6" x="69.5" y="27.0"><title>2022-04-28</title></rect><rect fill="#a9e6ab" height="2.6" rx="0.5" ry="0.5" width="2.6" x="69.5" y="30.5"><title>2022-04-29 8.15 mins</title></rect><rect fill="#EBEDF0" height="2.6" rx="0.5" ry="0.5" width="2.6" x="69.5" y="34.0"><title>2022-04-30</title></rect><rect fill="#EBEDF0" height="2.6" rx="0.5" ry="0.5" width="2.6" x="69.5" y="37.5"><title>2022-05-01</title></rect><rect fill="#64bc69" height="2.6" rx="0.5" ry="0.5" width="2.6" x="73.0" y="16.5"><title>2022-05-02 51.07 mins</title></rect><rect fill="#549F57" height="2.6" rx="0.5" ry="0.5" width="2.6" x="73.0" y="20.0"><title>2022-05-03 94.25 mins</title></rect><rect fill="#a3e3a5" height="2.6" rx="0.5" ry="0.5" width="2.6" x="73.0" y="23.5"><title>2022-05-04 22.25 mins</title></rect><rect fill="#66be6b" height="2.6" rx="0.5" ry="0.5" width="2.6" x="73.0" y="27.0"><title>2022-05-05 32.07 mins</title></rect><rect fill="#549F57" height="2.6" rx="0.5" ry="0.5" width="2.6" x="73.0" y="30.5"><title>2022-05-06 109.5 mins</title></rect><rect fill="#a8e5aa" height="2.6" rx="0.5" ry="0.5" width="2.6" x="73.0" y="34.0"><title>2022-05-07 9.7 mins</title></rect><rect fill="#66be6a" height="2.6" rx="0.5" ry="0.5" width="2.6" x="73.0" y="37.5"><title>2022-05-08 33.83 mins</title></rect><rect fill="#a7e5a9" height="2.6" rx="0.5" ry="0.5" width="2.6" x="76.5" y="16.5"><title>2022-05-09 11.57 mins</title></rect><rect fill="#549F57" height="2.6" rx="0.5" ry="0.5" width="2.6" x="76.5" y="20.0"><title>2022-05-10 64.03 mins</title></rect><rect fill="#a6e4a8" height="2.6" rx="0.5" ry="0.5" width="2.6" x="76.5" y="23.5"><title>2022-05-11 15.72 mins</title></rect><rect fill="#ace7ae" height="2.6" rx="0.5" ry="0.5" width="2.6" x="76.5" y="27.0"><title>2022-05-12 0.38 mins</title></rect><rect fill="#64bc68" height="2.6" rx="0.5" ry="0.5" width="2.6" x="76.5" y="30.5"><title>2022-05-13 52.23 mins</title></rect><rect fill="#abe7ad" height="2.6" rx="0.5" ry="0.5" width="2.6" x="76.5" y="34.0"><title>2022-05-14 1.77 mins</title></rect><rect fill="#549F57" height="2.6" rx="0.5" ry="0.5" width="2.6" x="76.5" y="37.5"><title>2022-05-15 143.68 mins</title></rect><rect fill="#EBEDF0" height="2.6" rx="0.5" ry="0.5" width="2.6" x="80.0" y="16.5"><title>2022-05-16</title></rect><rect fill="#EBEDF0" height="2.6" rx="0.5" ry="0.5" width="2.6" x="80.0" y="20.0"><title>2022-05-17</title></rect><rect fill="#ace7ae" height="2.6" rx="0.5" ry="0.5" width="2.6" x="80.0" y="23.5"><title>2022-05-18 0.32 mins</title></rect><rect fill="#EBEDF0" height="2.6" rx="0.5" ry="0.5" width="2.6" x="80.0" y="27.0"><title>2022-05-19</title></rect><rect fill="#ace7ae" height="2.6" rx="0.5" ry="0.5" width="2.6" x="80.0" y="30.5"><title>2022-05-20 0.18 mins</title></rect><rect fill="#a3e3a6" height="2.6" rx="0.5" ry="0.5" width="2.6" x="80.0" y="34.0"><title>2022-05-21 21.12 mins</title></rect><rect fill="#abe7ad" height="2.6" rx="0.5" ry="0.5" width="2.6" x="80.0" y="37.5"><title>2022-05-22 2.27 mins</title></rect><rect fill="#a6e4a8" height="2.6" rx="0.5" ry="0.5" width="2.6" x="83.5" y="16.5"><title>2022-05-23 15.88 mins</title></rect><rect fill="#aae6ac" height="2.6" rx="0.5" ry="0.5" width="2.6" x="83.5" y="20.0"><title>2022-05-24 5.8 mins</title></rect><rect fill="#EBEDF0" height="2.6" rx="0.5" ry="0.5" width="2.6" x="83.5" y="23.5"><title>2022-05-25</title></rect><rect fill="#EBEDF0" height="2.6" rx="0.5" ry="0.5" width="2.6" x="83.5" y="27.0"><title>2022-05-26</title></rect><rect fill="#EBEDF0" height="2.6" rx="0.5" ry="0.5" width="2.6" x="83.5" y="30.5"><title>2022-05-27</title></rect><rect fill="#EBEDF0" height="2.6" rx="0.5" ry="0.5" width="2.6" x="83.5" y="34.0"><title>2022-05-28</title></rect><rect fill="#EBEDF0" height="2.6" rx="0.5" ry="0.5" width="2.6" x="83.5" y="37.5"><title>2022-05-29</title></rect><rect fill="#a9e6ab" height="2.6" rx="0.5" ry="0.5" width="2.6" x="87.0" y="16.5"><title>2022-05-30 7.48 mins</title></rect><rect fill="#a9e6ab" height="2.6" rx="0.5" ry="0.5" width="2.6" x="87.0" y="20.0"><title>2022-05-31 6.4 mins</title></rect><rect fill="#ace7ae" height="2.6" rx="0.5" ry="0.5" width="2.6" x="87.0" y="23.5"><title>2022-06-01 1.17 mins</title></rect><rect fill="#ace7ae" height="2.6" rx="0.5" ry="0.5" width="2.6" x="87.0" y="27.0"><title>2022-06-02 0.08 mins</title></rect><rect fill="#ace7ae" height="2.6" rx="0.5" ry="0.5" width="2.6" x="87.0" y="30.5"><title>2022-06-03 0.07 mins</title></rect><rect fill="#ace7ae" height="2.6" rx="0.5" ry="0.5" width="2.6" x="87.0" y="34.0"><title>2022-06-04 0.65 mins</title></rect><rect fill="#ace7ae" height="2.6" rx="0.5" ry="0.5" width="2.6" x="87.0" y="37.5"><title>2022-06-05 0.07 mins</title></rect><rect fill="#EBEDF0" height="2.6" rx="0.5" ry="0.5" width="2.6" x="90.5" y="16.5"><title>2022-06-06</title></rect><rect fill="#EBEDF0" height="2.6" rx="0.5" ry="0.5" width="2.6" x="90.5" y="20.0"><title>2022-06-07</title></rect><rect fill="#ace7ae" height="2.6" rx="0.5" ry="0.5" width="2.6" x="90.5" y="23.5"><title>2022-06-08 0.73 mins</title></rect><rect fill="#EBEDF0" height="2.6" rx="0.5" ry="0.5" width="2.6" x="90.5" y="27.0"><title>2022-06-09</title></rect><rect fill="#EBEDF0" height="2.6" rx="0.5" ry="0.5" width="2.6" x="90.5" y="30.5"><title>2022-06-10</title></rect><rect fill="#ace7ae" height="2.6" rx="0.5" ry="0.5" width="2.6" x="90.5" y="34.0"><title>2022-06-11 0.05 mins</title></rect><rect fill="#EBEDF0" height="2.6" rx="0.5" ry="0.5" width="2.6" x="90.5" y="37.5"><title>2022-06-12</title></rect><rect fill="#a2e2a4" height="2.6" rx="0.5" ry="0.5" width="2.6" x="94.0" y="16.5"><title>2022-06-13 24.23 mins</title></rect><rect fill="#abe7ad" height="2.6" rx="0.5" ry="0.5" width="2.6" x="94.0" y="20.0"><title>2022-06-14 1.27 mins</title></rect><rect fill="#EBEDF0" height="2.6" rx="0.5" ry="0.5" width="2.6" x="94.0" y="23.5"><title>2022-06-15</title></rect><rect fill="#abe7ad" height="2.6" rx="0.5" ry="0.5" width="2.6" x="94.0" y="27.0"><title>2022-06-16 2.45 mins</title></rect><rect fill="#EBEDF0" height="2.6" rx="0.5" ry="0.5" width="2.6" x="94.0" y="30.5"><title>2022-06-17</title></rect><rect fill="#EBEDF0" height="2.6" rx="0.5" ry="0.5" width="2.6" x="94.0" y="34.0"><title>2022-06-18</title></rect><rect fill="#a2e3a5" height="2.6" rx="0.5" ry="0.5" width="2.6" x="94.0" y="37.5"><title>2022-06-19 24.02 mins</title></rect><rect fill="#65bd6a" height="2.6" rx="0.5" ry="0.5" width="2.6" x="97.5" y="16.5"><title>2022-06-20 36.25 mins</title></rect><rect fill="#a3e3a5" height="2.6" rx="0.5" ry="0.5" width="2.6" x="97.5" y="20.0"><title>2022-06-21 21.53 mins</title></rect><rect fill="#EBEDF0" height="2.6" rx="0.5" ry="0.5" width="2.6" x="97.5" y="23.5"><title>2022-06-22</title></rect><rect fill="#EBEDF0" height="2.6" rx="0.5" ry="0.5" width="2.6" x="97.5" y="27.0"><title>2022-06-23</title></rect><rect fill="#a9e5ab" height="2.6" rx="0.5" ry="0.5" width="2.6" x="97.5" y="30.5"><title>2022-06-24 8.47 mins</title></rect><rect fill="#EBEDF0" height="2.6" rx="0.5" ry="0.5" width="2.6" x="97.5" y="34.0"><title>2022-06-25</title></rect><rect fill="#a5e4a8" height="2.6" rx="0.5" ry="0.5" width="2.6" x="97.5" y="37.5"><title>2022-06-26 16.1 mins</title></rect><rect fill="#a7e5aa" height="2.6" rx="0.5" ry="0.5" width="2.6" x="101.0" y="16.5"><title>2022-06-27 11.23 mins</title></rect><rect fill="#EBEDF0" height="2.6" rx="0.5" ry="0.5" width="2.6" x="101.0" y="20.0"><title>2022-06-28</title></rect><rect fill="#65bd69" height="2.6" rx="0.5" ry="0.5" width="2.6" x="101.0" y="23.5"><title>2022-06-29 43.57 mins</title></rect><rect fill="#65bd6a" height="2.6" rx="0.5" ry="0.5" width="2.6" x="101.0" y="27.0"><title>2022-06-30 42.42 mins</title></rect><rect fill="#65bd6a" height="2.6" rx="0.5" ry="0.5" width="2.6" x="101.0" y="30.5"><title>2022-07-01 38.78 mins</title></rect><rect fill="#aae6ac" height="2.6" rx="0.5" ry="0.5" width="2.6" x="101.0" y="34.0"><title>2022-07-02 5.73 mins</title></rect><rect fill="#66bd6a" height="2.6" rx="0.5" ry="0.5" width="2.6" x="101.0" y="37.5"><title>2022-07-03 34.5 mins</title></rect><rect fill="#64bc68" height="2.6" rx="0.5" ry="0.5" width="2.6" x="104.5" y="16.5"><title>2022-07-04 52.95 mins</title></rect><rect fill="#66be6b" height="2.6" rx="0.5" ry="0.5" width="2.6" x="104.5" y="20.0"><title>2022-07-05 28.78 mins</title></rect><rect fill="#549F57" height="2.6" rx="0.5" ry="0.5" width="2.6" x="104.5" y="23.5"><title>2022-07-06 57.78 mins</title></rect><rect fill="#65bd6a" height="2.6" rx="0.5" ry="0.5" width="2.6" x="104.5" y="27.0"><title>2022-07-07 39.32 mins</title></rect><rect fill="#65bd6a" height="2.6" rx="0.5" ry="0.5" width="2.6" x="104.5" y="30.5"><title>2022-07-08 38.38 mins</title></rect><rect fill="#EBEDF0" height="2.6" rx="0.5" ry="0.5" width="2.6" x="104.5" y="34.0"><title>2022-07-09</title></rect><rect fill="#a9e6ab" height="2.6" rx="0.5" ry="0.5" width="2.6" x="104.5" y="37.5"><title>2022-07-10 7.32 mins</title></rect><rect fill="#549F57" height="2.6" rx="0.5" ry="0.5" width="2.6" x="108.0" y="16.5"><title>2022-07-11 72.03 mins</title></rect><rect fill="#549F57" height="2.6" rx="0.5" ry="0.5" width="2.6" x="108.0" y="20.0"><title>2022-07-12 84.55 mins</title></rect><rect fill="#549F57" height="2.6" rx="0.5" ry="0.5" width="2.6" x="108.0" y="23.5"><title>2022-07-13 57.47 mins</title></rect><rect fill="#a5e4a7" height="2.6" rx="0.5" ry="0.5" width="2.6" x="108.0" y="27.0"><title>2022-07-14 17.82 mins</title></rect><rect fill="#66be6b" height="2.6" rx="0.5" ry="0.5" width="2.6" x="108.0" y="30.5"><title>2022-07-15 25.2 mins</title></rect><rect fill="#a6e4a8" height="2.6" rx="0.5" ry="0.5" width="2.6" x="108.0" y="34.0"><title>2022-07-16 15.37 mins</title></rect><rect fill="#65bc69" height="2.6" rx="0.5" ry="0.5" width="2.6" x="108.0" y="37.5"><title>2022-07-17 44.87 mins</title></rect><rect fill="#66be6b" height="2.6" rx="0.5" ry="0.5" width="2.6" x="111.5" y="16.5"><title>2022-07-18 31.37 mins</title></rect><rect fill="#a9e6ab" height="2.6" rx="0.5" ry="0.5" width="2.6" x="111.5" y="20.0"><title>2022-07-19 7.67 mins</title></rect><rect fill="#EBEDF0" height="2.6" rx="0.5" ry="0.5" width="2.6" x="111.5" y="23.5"><title>2022-07-20</title></rect><rect fill="#aae6ac" height="2.6" rx="0.5" ry="0.5" width="2.6" x="111.5" y="27.0"><title>2022-07-21 5.23 mins</title></rect><rect fill="#549F57" height="2.6" rx="0.5" ry="0.5" width="2.6" x="111.5" y="30.5"><title>2022-07-22 71.95 mins</title></rect><rect fill="#a3e3a5" height="2.6" rx="0.5" ry="0.5" width="2.6" x="111.5" y="34.0"><title>2022-07-23 23.1 mins</title></rect><rect fill="#549F57" height="2.6" rx="0.5" ry="0.5" width="2.6" x="111.5" y="37.5"><title>2022-07-24 92.25 mins</title></rect><rect fill="#a3e3a5" height="2.6" rx="0.5" ry="0.5" width="2.6" x="115.0" y="16.5"><title>2022-07-25 22.68 mins</title></rect><rect fill="#549F57" height="2.6" rx="0.5" ry="0.5" width="2.6" x="115.0" y="20.0"><title>2022-07-26 95.13 mins</title></rect><rect fill="#abe6ad" height="2.6" rx="0.5" ry="0.5" width="2.6" x="115.0" y="23.5"><title>2022-07-27 2.82 mins</title></rect><rect fill="#a4e3a6" height="2.6" rx="0.5" ry="0.5" width="2.6" x="115.0" y="27.0"><title>2022-07-28 19.93 mins</title></rect><rect fill="#66be6b" height="2.6" rx="0.5" ry="0.5" width="2.6" x="115.0" y="30.5"><title>2022-07-29 25.1 mins</title></rect><rect fill="#ace7ae" height="2.6" rx="0.5" ry="0.5" width="2.6" x="115.0" y="34.0"><title>2022-07-30 0.07 mins</title></rect><rect fill="#a8e5ab" height="2.6" rx="0.5" ry="0.5" width="2.6" x="115.0" y="37.5"><title>2022-07-31 8.72 mins</title></rect><rect fill="#65bc69" height="2.6" rx="0.5" ry="0.5" width="2.6" x="118.5" y="16.5"><title>2022-08-01 44.53 mins</title></rect><rect fill="#65bd6a" height="2.6" rx="0.5" ry="0.5" width="2.6" x="118.5" y="20.0"><title>2022-08-02 40.38 mins</title></rect><rect fill="#EBEDF0" height="2.6" rx="0.5" ry="0.5" width="2.6" x="118.5" y="23.5"><title>2022-08-03</title></rect><rect fill="#EBEDF0" height="2.6" rx="0.5" ry="0.5" width="2.6" x="118.5" y="27.0"><title>2022-08-04</title></rect><rect fill="#EBEDF0" height="2.6" rx="0.5" ry="0.5" width="2.6" x="118.5" y="30.5"><title>2022-08-05</title></rect><rect fill="#65bd69" height="2.6" rx="0.5" ry="0.5" width="2.6" x="118.5" y="34.0"><title>2022-08-06 43.73 mins</title></rect><rect fill="#a9e5ab" height="2.6" rx="0.5" ry="0.5" width="2.6" x="118.5" y="37.5"><title>2022-08-07 8.4 mins</title></rect><rect fill="#EBEDF0" height="2.6" rx="0.5" ry="0.5" width="2.6" x="122.0" y="16.5"><title>2022-08-08</title></rect><rect fill="#549F57" height="2.6" rx="0.5" ry="0.5" width="2.6" x="122.0" y="20.0"><title>2022-08-09 112.5 mins</title></rect><rect fill="#aae6ac" height="2.6" rx="0.5" ry="0.5" width="2.6" x="122.0" y="23.5"><title>2022-08-10 5.95 mins</title></rect><rect fill="#a8e5aa" height="2.6" rx="0.5" ry="0.5" width="2.6" x="122.0" y="27.0"><title>2022-08-11 11.03 mins</title></rect><rect fill="#a5e4a7" height="2.6" rx="0.5" ry="0.5" width="2.6" x="122.0" y="30.5"><title>2022-08-12 17.5 mins</title></rect><rect fill="#a6e4a8" height="2.6" rx="0.5" ry="0.5" width="2.6" x="122.0" y="34.0"><title>2022-08-13 15.77 mins</title></rect><rect fill="#abe6ad" height="2.6" rx="0.5" ry="0.5" width="2.6" x="122.0" y="37.5"><title>2022-08-14 3.2 mins</title></rect><rect fill="#a6e4a8" height="2.6" rx="0.5" ry="0.5" width="2.6" x="125.5" y="16.5"><title>2022-08-15 15.92 mins</title></rect><rect fill="#65bd6a" height="2.6" rx="0.5" ry="0.5" width="2.6" x="125.5" y="20.0"><title>2022-08-16 39.47 mins</title></rect><rect fill="#a4e3a6" height="2.6" rx="0.5" ry="0.5" width="2.6" x="125.5" y="23.5"><title>2022-08-17 19.62 mins</title></rect><rect fill="#ace7ae" height="2.6" rx="0.5" ry="0.5" width="2.6" x="125.5" y="27.0"><title>2022-08-18 0.08 mins</title></rect><rect fill="#64bb68" height="2.6" rx="0.5" ry="0.5" width="2.6" x="125.5" y="30.5"><title>2022-08-19 54.78 mins</title></rect><rect fill="#a9e6ab" height="2.6" rx="0.5" ry="0.5" width="2.6" x="125.5" y="34.0"><title>2022-08-20 8.03 mins</title></rect><rect fill="#aae6ac" height="2.6" rx="0.5" ry="0.5" width="2.6" x="125.5" y="37.5"><title>2022-08-21 6.05 mins</title></rect><rect fill="#EBEDF0" height="2.6" rx="0.5" ry="0.5" width="2.6" x="129.0" y="16.5"><title>2022-08-22</title></rect><rect fill="#EBEDF0" height="2.6" rx="0.5" ry="0.5" width="2.6" x="129.0" y="20.0"><title>2022-08-23</title></rect><rect fill="#aae6ac" height="2.6" rx="0.5" ry="0.5" width="2.6" x="129.0" y="23.5"><title>2022-08-24 5.4 mins</title></rect><rect fill="#ace7ae" height="2.6" rx="0.5" ry="0.5" width="2.6" x="129.0" y="27.0"><title>2022-08-25 0.08 mins</title></rect><rect fill="#EBEDF0" height="2.6" rx="0.5" ry="0.5" width="2.6" x="129.0" y="30.5"><title>2022-08-26</title></rect><rect fill="#a5e4a8" height="2.6" rx="0.5" ry="0.5" width="2.6" x="129.0" y="34.0"><title>2022-08-27 16.25 mins</title></rect><rect fill="#EBEDF0" height="2.6" rx="0.5" ry="0.5" width="2.6" x="129.0" y="37.5"><title>2022-08-28</title></rect><rect fill="#ace7ae" height="2.6" rx="0.5" ry="0.5" width="2.6" x="132.5" y="16.5"><title>2022-08-29 0.38 mins</title></rect><rect fill="#a3e3a5" height="2.6" rx="0.5" ry="0.5" width="2.6" x="132.5" y="20.0"><title>2022-08-30 22.6 mins</title></rect><rect fill="#EBEDF0" height="2.6" rx="0.5" ry="0.5" width="2.6" x="132.5" y="23.5"><title>2022-08-31</title></rect><rect fill="#EBEDF0" height="2.6" rx="0.5" ry="0.5" width="2.6" x="132.5" y="27.0"><title>2022-09-01</title></rect><rect fill="#a6e4a8" height="2.6" rx="0.5" ry="0.5" width="2.6" x="132.5" y="30.5"><title>2022-09-02 14.9 mins</title></rect><rect fill="#ace7ae" height="2.6" rx="0.5" ry="0.5" width="2.6" x="132.5" y="34.0"><title>2022-09-03 0.43 mins</title></rect><rect fill="#aae6ac" height="2.6" rx="0.5" ry="0.5" width="2.6" x="132.5" y="37.5"><title>2022-09-04 3.82 mins</title></rect><rect fill="#64bb68" height="2.6" rx="0.5" ry="0.5" width="2.6" x="136.0" y="16.5"><title>2022-09-05 54.08 mins</title></rect><rect fill="#66be6b" height="2.6" rx="0.5" ry="0.5" width="2.6" x="136.0" y="20.0"><title>2022-09-06 29.93 mins</title></rect><rect fill="#66be6a" height="2.6" rx="0.5" ry="0.5" width="2.6" x="136.0" y="23.5"><title>2022-09-07 33.92 mins</title></rect><rect fill="#a3e3a5" height="2.6" rx="0.5" ry="0.5" width="2.6" x="136.0" y="27.0"><title>2022-09-08 23.47 mins</title></rect><rect fill="#aae6ac" height="2.6" rx="0.5" ry="0.5" width="2.6" x="136.0" y="30.5"><title>2022-09-09 5.53 mins</title></rect><rect fill="#EBEDF0" height="2.6" rx="0.5" ry="0.5" width="2.6" x="136.0" y="34.0"><title>2022-09-10</title></rect><rect fill="#ace7ae" height="2.6" rx="0.5" ry="0.5" width="2.6" x="136.0" y="37.5"><title>2022-09-11 0.12 mins</title></rect><rect fill="#65bd6a" height="2.6" rx="0.5" ry="0.5" width="2.6" x="139.5" y="16.5"><title>2022-09-12 39.85 mins</title></rect><rect fill="#a5e4a7" height="2.6" rx="0.5" ry="0.5" width="2.6" x="139.5" y="20.0"><title>2022-09-13 17.07 mins</title></rect><rect fill="#64bc69" height="2.6" rx="0.5" ry="0.5" width="2.6" x="139.5" y="23.5"><title>2022-09-14 48.6 mins</title></rect><rect fill="#a9e6ab" height="2.6" rx="0.5" ry="0.5" width="2.6" x="139.5" y="27.0"><title>2022-09-15 6.63 mins</title></rect><rect fill="#EBEDF0" height="2.6" rx="0.5" ry="0.5" width="2.6" x="139.5" y="30.5"><title>2022-09-16</title></rect><rect fill="#ace7ae" height="2.6" rx="0.5" ry="0.5" width="2.6" x="139.5" y="34.0"><title>2022-09-17 0.52 mins</title></rect><rect fill="#66be6b" height="2.6" rx="0.5" ry="0.5" width="2.6" x="139.5" y="37.5"><title>2022-09-18 26.85 mins</title></rect><rect fill="#64bc69" height="2.6" rx="0.5" ry="0.5" width="2.6" x="143.0" y="16.5"><title>2022-09-19 47.38 mins</title></rect><rect fill="#EBEDF0" height="2.6" rx="0.5" ry="0.5" width="2.6" x="143.0" y="20.0"><title>2022-09-20</title></rect><rect fill="#EBEDF0" height="2.6" rx="0.5" ry="0.5" width="2.6" x="143.0" y="23.5"><title>2022-09-21</title></rect><rect fill="#ace7ae" height="2.6" rx="0.5" ry="0.5" width="2.6" x="143.0" y="27.0"><title>2022-09-22 0.55 mins</title></rect><rect fill="#64bc69" height="2.6" rx="0.5" ry="0.5" width="2.6" x="143.0" y="30.5"><title>2022-09-23 46.02 mins</title></rect><rect fill="#549F57" height="2.6" rx="0.5" ry="0.5" width="2.6" x="143.0" y="34.0"><title>2022-09-24 86.6 mins</title></rect><rect fill="#abe7ad" height="2.6" rx="0.5" ry="0.5" width="2.6" x="143.0" y="37.5"><title>2022-09-25 1.52 mins</title></rect><rect fill="#64bc69" height="2.6" rx="0.5" ry="0.5" width="2.6" x="146.5" y="16.5"><title>2022-09-26 50.22 mins</title></rect><rect fill="#549F57" height="2.6" rx="0.5" ry="0.5" width="2.6" x="146.5" y="20.0"><title>2022-09-27 65.67 mins</title></rect><rect fill="#64bc68" height="2.6" rx="0.5" ry="0.5" width="2.6" x="146.5" y="23.5"><title>2022-09-28 52.4 mins</title></rect><rect fill="#64bc69" height="2.6" rx="0.5" ry="0.5" width="2.6" x="146.5" y="27.0"><title>2022-09-29 49.8 mins</title></rect><rect fill="#EBEDF0" height="2.6" rx="0.5" ry="0.5" width="2.6" x="146.5" y="30.5"><title>2022-09-30</title></rect><rect fill="#EBEDF0" height="2.6" rx="0.5" ry="0.5" width="2.6" x="146.5" y="34.0"><title>2022-10-01</title></rect><rect fill="#EBEDF0" height="2.6" rx="0.5" ry="0.5" width="2.6" x="146.5" y="37.5"><title>2022-10-02</title></rect><rect fill="#65bd6a" height="2.6" rx="0.5" ry="0.5" width="2.6" x="150.0" y="16.5"><title>2022-10-03 36.77 mins</title></rect><rect fill="#a4e4a7" height="2.6" rx="0.5" ry="0.5" width="2.6" x="150.0" y="20.0"><title>2022-10-04 18.85 mins</title></rect><rect fill="#64bc69" height="2.6" rx="0.5" ry="0.5" width="2.6" x="150.0" y="23.5"><title>2022-10-05 46.58 mins</title></rect><rect fill="#65bd69" height="2.6" rx="0.5" ry="0.5" width="2.6" x="150.0" y="27.0"><title>2022-10-06 42.85 mins</title></rect><rect fill="#ace7ae" height="2.6" rx="0.5" ry="0.5" width="2.6" x="150.0" y="30.5"><title>2022-10-07 0.07 mins</title></rect><rect fill="#ace7ae" height="2.6" rx="0.5" ry="0.5" width="2.6" x="150.0" y="34.0"><title>2022-10-08 0.93 mins</title></rect><rect fill="#a4e3a6" height="2.6" rx="0.5" ry="0.5" width="2.6" x="150.0" y="37.5"><title>2022-10-09 20.33 mins</title></rect><rect fill="#66be6b" height="2.6" rx="0.5" ry="0.5" width="2.6" x="153.5" y="16.5"><title>2022-10-10 26.45 mins</title></rect><rect fill="#64bc69" height="2.6" rx="0.5" ry="0.5" width="2.6" x="153.5" y="20.0"><title>2022-10-11 50.32 mins</title></rect><rect fill="#66be6a" height="2.6" rx="0.5" ry="0.5" width="2.6" x="153.5" y="23.5"><title>2022-10-12 33.88 mins</title></rect><rect fill="#66be6b" height="2.6" rx="0.5" ry="0.5" width="2.6" x="153.5" y="27.0"><title>2022-10-13 25.08 mins</title></rect><rect fill="#64bc69" height="2.6" rx="0.5" ry="0.5" width="2.6" x="153.5" y="30.5"><title>2022-10-14 48.83 mins</title></rect><rect fill="#a4e3a6" height="2.6" rx="0.5" ry="0.5" width="2.6" x="153.5" y="34.0"><title>2022-10-15 20.63 mins</title></rect><rect fill="#a2e3a5" height="2.6" rx="0.5" ry="0.5" width="2.6" x="153.5" y="37.5"><title>2022-10-16 23.7 mins</title></rect><rect fill="#64bc69" height="2.6" rx="0.5" ry="0.5" width="2.6" x="157.0" y="16.5"><title>2022-10-17 48.95 mins</title></rect><rect fill="#abe7ad" height="2.6" rx="0.5" ry="0.5" width="2.6" x="157.0" y="20.0"><title>2022-10-18 2.52 mins</title></rect><rect fill="#65bd6a" height="2.6" rx="0.5" ry="0.5" width="2.6" x="157.0" y="23.5"><title>2022-10-19 35.52 mins</title></rect><rect fill="#64bc69" height="2.6" rx="0.5" ry="0.5" width="2.6" x="157.0" y="27.0"><title>2022-10-20 48.02 mins</title></rect><rect fill="#a8e5aa" height="2.6" rx="0.5" ry="0.5" width="2.6" x="157.0" y="30.5"><title>2022-10-21 9.03 mins</title></rect><rect fill="#a9e6ab" height="2.6" rx="0.5" ry="0.5" width="2.6" x="157.0" y="34.0"><title>2022-10-22 7.9 mins</title></rect><rect fill="#65bd6a" height="2.6" rx="0.5" ry="0.5" width="2.6" x="157.0" y="37.5"><title>2022-10-23 35.28 mins</title></rect><rect fill="#64bc69" height="2.6" rx="0.5" ry="0.5" width="2.6" x="160.5" y="16.5"><title>2022-10-24 45.93 mins</title></rect><rect fill="#67be6b" height="2.6" rx="0.5" ry="0.5" width="2.6" x="160.5" y="20.0"><title>2022-10-25 24.72 mins</title></rect><rect fill="#549F57" height="2.6" rx="0.5" ry="0.5" width="2.6" x="160.5" y="23.5"><title>2022-10-26 228.53 mins</title></rect><rect fill="#EBEDF0" height="2.6" rx="0.5" ry="0.5" width="2.6" x="160.5" y="27.0"><title>2022-10-27</title></rect><rect fill="#aae6ac" height="2.6" rx="0.5" ry="0.5" width="2.6" x="160.5" y="30.5"><title>2022-10-28 4.92 mins</title></rect><rect fill="#EBEDF0" height="2.6" rx="0.5" ry="0.5" width="2.6" x="160.5" y="34.0"><title>2022-10-29</title></rect><rect fill="#a4e3a6" height="2.6" rx="0.5" ry="0.5" width="2.6" x="160.5" y="37.5"><title>2022-10-30 19.47 mins</title></rect><rect fill="#a8e5ab" height="2.6" rx="0.5" ry="0.5" width="2.6" x="164.0" y="16.5"><title>2022-10-31 8.67 mins</title></rect><rect fill="#a8e5aa" height="2.6" rx="0.5" ry="0.5" width="2.6" x="164.0" y="20.0"><title>2022-11-01 9.68 mins</title></rect><rect fill="#549F57" height="2.6" rx="0.5" ry="0.5" width="2.6" x="164.0" y="23.5"><title>2022-11-02 76.2 mins</title></rect><rect fill="#EBEDF0" height="2.6" rx="0.5" ry="0.5" width="2.6" x="164.0" y="27.0"><title>2022-11-03</title></rect><rect fill="#a9e6ab" height="2.6" rx="0.5" ry="0.5" width="2.6" x="164.0" y="30.5"><title>2022-11-04 7.52 mins</title></rect><rect fill="#549F57" height="2.6" rx="0.5" ry="0.5" width="2.6" x="164.0" y="34.0"><title>2022-11-05 78.83 mins</title></rect><rect fill="#a4e4a7" height="2.6" rx="0.5" ry="0.5" width="2.6" x="164.0" y="37.5"><title>2022-11-06 18.53 mins</title></rect><rect fill="#64bc69" height="2.6" rx="0.5" ry="0.5" width="2.6" x="167.5" y="16.5"><title>2022-11-07 46.1 mins</title></rect><rect fill="#a3e3a5" height="2.6" rx="0.5" ry="0.5" width="2.6" x="167.5" y="20.0"><title>2022-11-08 23.45 mins</title></rect><rect fill="#a5e4a7" height="2.6" rx="0.5" ry="0.5" width="2.6" x="167.5" y="23.5"><title>2022-11-09 17.85 mins</title></rect><rect fill="#a6e4a8" height="2.6" rx="0.5" ry="0.5" width="2.6" x="167.5" y="27.0"><title>2022-11-10 14.32 mins</title></rect><rect fill="#a9e6ab" height="2.6" rx="0.5" ry="0.5" width="2.6" x="167.5" y="30.5"><title>2022-11-11 7.28 mins</title></rect><rect fill="#549F57" height="2.6" rx="0.5" ry="0.5" width="2.6" x="167.5" y="34.0"><title>2022-11-12 112.48 mins</title></rect><rect fill="#549F57" height="2.6" rx="0.5" ry="0.5" width="2.6" x="167.5" y="37.5"><title>2022-11-13 68.17 mins</title></rect><rect fill="#65bc69" height="2.6" rx="0.5" ry="0.5" width="2.6" x="171.0" y="16.5"><title>2022-11-14 44.83 mins</title></rect><rect fill="#65bd6a" height="2.6" rx="0.5" ry="0.5" width="2.6" x="171.0" y="20.0"><title>2022-11-15 38.38 mins</title></rect><rect fill="#549F57" height="2.6" rx="0.5" ry="0.5" width="2.6" x="171.0" y="23.5"><title>2022-11-16 74.53 mins</title></rect><rect fill="#549F57" height="2.6" rx="0.5" ry="0.5" width="2.6" x="171.0" y="27.0"><title>2022-11-17 60.83 mins</title></rect><rect fill="#a7e5a9" height="2.6" rx="0.5" ry="0.5" width="2.6" x="171.0" y="30.5"><title>2022-11-18 13.13 mins</title></rect><rect fill="#64bc69" height="2.6" rx="0.5" ry="0.5" width="2.6" x="171.0" y="34.0"><title>2022-11-19 46.95 mins</title></rect><rect fill="#549F57" height="2.6" rx="0.5" ry="0.5" width="2.6" x="171.0" y="37.5"><title>2022-11-20 61.65 mins</title></rect><rect fill="#65bd6a" height="2.6" rx="0.5" ry="0.5" width="2.6" x="174.5" y="16.5"><title>2022-11-21 40.47 mins</title></rect><rect fill="#abe7ad" height="2.6" rx="0.5" ry="0.5" width="2.6" x="174.5" y="20.0"><title>2022-11-22 1.67 mins</title></rect><rect fill="#EBEDF0" height="2.6" rx="0.5" ry="0.5" width="2.6" x="174.5" y="23.5"><title>2022-11-23</title></rect><rect fill="#66be6b" height="2.6" rx="0.5" ry="0.5" width="2.6" x="174.5" y="27.0"><title>2022-11-24 25.7 mins</title></rect><rect fill="#a4e3a6" height="2.6" rx="0.5" ry="0.5" width="2.6" x="174.5" y="30.5"><title>2022-11-25 20.3 mins</title></rect><rect fill="#65bd6a" height="2.6" rx="0.5" ry="0.5" width="2.6" x="174.5" y="34.0"><title>2022-11-26 38.7 mins</title></rect><rect fill="#a8e5aa" height="2.6" rx="0.5" ry="0.5" width="2.6" x="174.5" y="37.5"><title>2022-11-27 8.98 mins</title></rect><rect fill="#66be6b" height="2.6" rx="0.5" ry="0.5" width="2.6" x="178.0" y="16.5"><title>2022-11-28 31.47 mins</title></rect><rect fill="#549F57" height="2.6" rx="0.5" ry="0.5" width="2.6" x="178.0" y="20.0"><title>2022-11-29 63.28 mins</title></rect><rect fill="#64bc69" height="2.6" rx="0.5" ry="0.5" width="2.6" x="178.0" y="23.5"><title>2022-11-30 48.28 mins</title></rect><rect fill="#549F57" height="2.6" rx="0.5" ry="0.5" width="2.6" x="178.0" y="27.0"><title>2022-12-01 108.97 mins</title></rect><rect fill="#66be6b" height="2.6" rx="0.5" ry="0.5" width="2.6" x="178.0" y="30.5"><title>2022-12-02 29.32 mins</title></rect><rect fill="#549F57" height="2.6" rx="0.5" ry="0.5" width="2.6" x="178.0" y="34.0"><title>2022-12-03 57.38 mins</title></rect><rect fill="#aae6ac" height="2.6" rx="0.5" ry="0.5" width="2.6" x="178.0" y="37.5"><title>2022-12-04 5.87 mins</title></rect><rect fill="#ace7ae" height="2.6" rx="0.5" ry="0.5" width="2.6" x="181.5" y="16.5"><title>2022-12-05 0.1 mins</title></rect><rect fill="#EBEDF0" height="2.6" rx="0.5" ry="0.5" width="2.6" x="181.5" y="20.0"><title>2022-12-06</title></rect><rect fill="#ace7ae" height="2.6" rx="0.5" ry="0.5" width="2.6" x="181.5" y="23.5"><title>2022-12-07 0.4 mins</title></rect><rect fill="#EBEDF0" height="2.6" rx="0.5" ry="0.5" width="2.6" x="181.5" y="27.0"><title>2022-12-08</title></rect><rect fill="#ace7ae" height="2.6" rx="0.5" ry="0.5" width="2.6" x="181.5" y="30.5"><title>2022-12-09 0.97 mins</title></rect><rect fill="#abe7ad" height="2.6" rx="0.5" ry="0.5" width="2.6" x="181.5" y="34.0"><title>2022-12-10 1.68 mins</title></rect><rect fill="#ace7ae" height="2.6" rx="0.5" ry="0.5" width="2.6" x="181.5" y="37.5"><title>2022-12-11 0.9 mins</title></rect><rect fill="#a2e3a5" height="2.6" rx="0.5" ry="0.5" width="2.6" x="185.0" y="16.5"><title>2022-12-12 23.72 mins</title></rect><rect fill="#549F57" height="2.6" rx="0.5" ry="0.5" width="2.6" x="185.0" y="20.0"><title>2022-12-13 69.83 mins</title></rect><rect fill="#EBEDF0" height="2.6" rx="0.5" ry="0.5" width="2.6" x="185.0" y="23.5"><title>2022-12-14</title></rect><rect fill="#66be6b" height="2.6" rx="0.5" ry="0.5" width="2.6" x="185.0" y="27.0"><title>2022-12-15 28.2 mins</title></rect><rect fill="#66be6b" height="2.6" rx="0.5" ry="0.5" width="2.6" x="185.0" y="30.5"><title>2022-12-16 31.65 mins</title></rect><rect fill="#aae6ac" height="2.6" rx="0.5" ry="0.5" width="2.6" x="185.0" y="34.0"><title>2022-12-17 5.58 mins</title></rect><rect fill="#64bc68" height="2.6" rx="0.5" ry="0.5" width="2.6" x="185.0" y="37.5"><title>2022-12-18 53.03 mins</title></rect><rect fill="#a5e4a7" height="2.6" rx="0.5" ry="0.5" width="2.6" x="188.5" y="16.5"><title>2022-12-19 18.25 mins</title></rect><rect fill="#65bd6a" height="2.6" rx="0.5" ry="0.5" width="2.6" x="188.5" y="20.0"><title>2022-12-20 37.3 mins</title></rect><rect fill="#a6e4a9" height="2.6" rx="0.5" ry="0.5" width="2.6" x="188.5" y="23.5"><title>2022-12-21 13.6 mins</title></rect><rect fill="#a6e4a8" height="2.6" rx="0.5" ry="0.5" width="2.6" x="188.5" y="27.0"><title>2022-12-22 14.47 mins</title></rect><rect fill="#a4e3a6" height="2.6" rx="0.5" ry="0.5" width="2.6" x="188.5" y="30.5"><title>2022-12-23 20.05 mins</title></rect><rect fill="#549F57" height="2.6" rx="0.5" ry="0.5" width="2.6" x="188.5" y="34.0"><title>2022-12-24 69.65 mins</title></rect><rect fill="#66be6a" height="2.6" rx="0.5" ry="0.5" width="2.6" x="188.5" y="37.5"><title>2022-12-25 33.3 mins</title></rect><rect fill="#a9e6ab" height="2.6" rx="0.5" ry="0.5" width="2.6" x="192.0" y="16.5"><title>2022-12-26 7.3 mins</title></rect><rect fill="#a5e4a7" height="2.6" rx="0.5" ry="0.5" width="2.6" x="192.0" y="20.0"><title>2022-12-27 18.07 mins</title></rect><rect fill="#66be6b" height="2.6" rx="0.5" ry="0.5" width="2.6" x="192.0" y="23.5"><title>2022-12-28 30.82 mins</title></rect><rect fill="#65bd6a" height="2.6" rx="0.5" ry="0.5" width="2.6" x="192.0" y="27.0"><title>2022-12-29 38.72 mins</title></rect><rect fill="#a6e4a8" height="2.6" rx="0.5" ry="0.5" width="2.6" x="192.0" y="30.5"><title>2022-12-30 14.38 mins</title></rect><rect fill="#aae6ac" height="2.6" rx="0.5" ry="0.5" width="2.6" x="192.0" y="34.0"><title>2022-12-31 4.92 mins</title></rect></svg>